<?xml version="1.0" standalone="no"?>
<!DOCTYPE svg PUBLIC "-//W3C//DTD SVG 20010904//EN"
 "http://www.w3.org/TR/2001/REC-SVG-20010904/DTD/svg10.dtd">
<svg version="1.0" xmlns="http://www.w3.org/2000/svg"
 width="16.000000pt" height="16.000000pt" viewBox="0 0 16.000000 16.000000"
 preserveAspectRatio="xMidYMid meet">
<metadata>
Created by potrace 1.11, written by Peter Selinger 2001-2013
</metadata>
<g transform="translate(0.000000,16.000000) scale(0.001896,-0.001896)"
fill="#000000" stroke="none">
<path d="M3996 8202 c-3 -5 1 -9 9 -9 8 0 12 4 9 9 -3 4 -7 8 -9 8 -2 0 -6 -4
-9 -8z"/>
<path d="M3876 8178 c3 -5 10 -6 15 -3 13 9 11 12 -6 12 -8 0 -12 -4 -9 -9z"/>
<path d="M4375 8183 c3 -3 -1 -13 -8 -21 -9 -13 -9 -14 1 -8 6 4 12 3 12 -2 0
-11 -281 -9 -299 2 -10 6 -12 5 -7 -2 5 -9 -7 -11 -43 -9 -28 2 -48 0 -45 -5
3 -4 0 -8 -5 -8 -10 0 -15 13 -12 32 1 8 -26 4 -36 -6 -4 -4 -2 -6 6 -4 7 2
15 -2 17 -7 2 -6 -5 -11 -16 -11 -11 0 -20 5 -20 11 0 5 -4 4 -9 -4 -5 -8 -19
-12 -35 -9 -14 3 -26 2 -26 -2 0 -4 -16 -7 -35 -8 -20 -1 -41 -5 -47 -8 -8 -5
-9 -1 -5 12 7 18 7 18 -8 0 -11 -14 -15 -16 -15 -5 0 10 -2 11 -8 2 -4 -7 -31
-14 -60 -15 -29 -2 -52 -7 -52 -13 0 -5 -4 -4 -9 4 -6 9 -11 10 -15 2 -4 -6
-14 -11 -22 -11 -8 0 -13 4 -10 8 3 5 -1 9 -8 9 -8 0 -12 -6 -9 -13 3 -9 -4
-12 -26 -9 -23 3 -30 1 -24 -8 4 -7 -2 -5 -12 3 -11 9 -16 10 -11 3 4 -7 3
-13 -3 -13 -5 0 -12 6 -14 13 -3 7 -6 5 -6 -5 -1 -10 -5 -18 -11 -18 -5 0 -7
8 -4 18 5 14 4 15 -5 2 -6 -8 -14 -15 -18 -16 -4 0 -15 -3 -23 -6 -44 -16 -93
-26 -106 -21 -8 3 -14 1 -14 -4 0 -5 -6 -10 -12 -11 -7 0 -22 -3 -33 -5 -11
-2 -23 1 -27 7 -5 7 -8 5 -8 -5 0 -11 -12 -19 -34 -23 -19 -4 -63 -16 -97 -27
-34 -11 -70 -21 -81 -22 -10 -1 -18 -5 -18 -10 0 -5 -7 -7 -15 -3 -8 3 -15 2
-15 -3 0 -14 -35 -19 -54 -9 -9 5 -13 14 -10 20 5 7 2 8 -5 4 -9 -6 -8 -13 6
-28 14 -16 15 -19 3 -17 -8 1 -41 -10 -74 -24 -32 -15 -64 -27 -70 -27 -6 0
-22 -7 -34 -16 -12 -8 -22 -13 -22 -10 0 3 -20 -5 -45 -19 -25 -13 -54 -22
-65 -20 -13 3 -17 -1 -13 -11 3 -8 0 -14 -6 -14 -6 0 -11 5 -11 10 0 6 -5 10
-12 10 -6 0 -8 -3 -5 -7 10 -10 -24 -43 -44 -43 -10 0 -21 -5 -24 -11 -4 -6
-14 -8 -22 -5 -8 3 -12 2 -9 -3 8 -12 -17 -21 -46 -15 -21 4 -21 3 -3 -5 l20
-9 -20 -8 c-11 -4 -42 -21 -69 -36 -40 -24 -51 -27 -65 -16 -14 11 -14 11 -4
-3 14 -17 8 -29 -14 -29 -9 0 -11 5 -7 13 4 7 3 9 -2 4 -5 -5 -9 -14 -9 -20 0
-7 -8 -11 -18 -11 -9 1 -15 -2 -12 -6 5 -8 -67 -60 -83 -60 -4 0 -16 -10 -26
-21 -15 -18 -20 -19 -27 -8 -7 11 -9 11 -9 -2 0 -9 -12 -24 -26 -34 -18 -12
-24 -13 -19 -4 4 8 -4 1 -17 -15 -15 -18 -29 -26 -37 -22 -6 4 -10 3 -9 -2 2
-5 -22 -29 -52 -53 -30 -24 -51 -39 -47 -33 4 7 1 14 -7 17 -9 4 -12 0 -9 -13
7 -26 -61 -77 -81 -61 -11 9 -16 9 -22 0 -4 -7 -3 -9 4 -5 16 10 25 -13 11
-30 -6 -8 -14 -13 -16 -11 -2 2 -38 -29 -81 -69 -42 -41 -85 -76 -95 -80 -9
-3 -15 -10 -12 -15 4 -5 -4 -13 -17 -18 -13 -6 -19 -10 -15 -10 4 -1 2 -7 -5
-15 -17 -18 -28 -11 -23 14 2 12 0 18 -5 15 -5 -3 -7 -17 -4 -30 2 -14 0 -25
-6 -25 -6 0 -8 -5 -5 -11 4 -6 -2 -13 -14 -16 -11 -3 -18 -10 -14 -16 4 -6 0
-8 -11 -4 -10 4 -15 3 -11 -3 7 -12 -16 -50 -31 -50 -7 0 -15 -8 -19 -17 -6
-17 -7 -17 -16 0 -6 9 -7 23 -3 30 5 9 4 9 -5 1 -10 -9 -10 -17 -2 -32 9 -17
6 -26 -19 -54 -16 -18 -30 -36 -30 -41 0 -4 -4 -6 -9 -3 -5 3 -15 -2 -22 -11
-12 -14 -12 -16 1 -8 13 8 13 7 0 -11 -20 -25 -32 -34 -42 -28 -4 3 -5 -3 -1
-13 6 -16 4 -16 -18 2 -13 11 -18 13 -11 5 6 -8 12 -21 12 -30 -1 -19 -58 -83
-69 -76 -5 3 -15 -2 -22 -12 -13 -15 -12 -16 4 -3 24 19 23 -3 -2 -35 -13 -17
-21 -20 -24 -12 -3 7 -6 1 -6 -14 -1 -16 -7 -28 -14 -28 -8 0 -22 -10 -33 -22
l-19 -23 23 19 c12 11 22 14 22 8 0 -6 -12 -20 -27 -32 -16 -12 -22 -18 -14
-15 9 5 8 -1 -4 -19 -10 -14 -21 -26 -26 -26 -5 0 -8 -3 -7 -7 2 -11 -24 -63
-32 -63 -4 0 -12 -12 -18 -26 -7 -14 -17 -22 -22 -19 -5 3 -7 0 -4 -9 7 -18
-39 -89 -51 -78 -5 4 -5 2 -2 -5 10 -16 -3 -44 -16 -36 -5 3 -7 2 -4 -4 8 -13
-52 -135 -63 -128 -5 3 -7 -1 -4 -9 8 -20 -6 -43 -16 -26 -5 8 -9 5 -13 -9 -3
-13 -1 -19 5 -15 6 4 9 3 6 -2 -2 -5 -12 -28 -22 -51 -10 -24 -22 -43 -27 -43
-5 0 -8 -3 -7 -7 4 -14 -21 -73 -31 -73 -5 0 -7 -8 -4 -19 2 -10 -3 -25 -11
-34 -9 -9 -16 -20 -15 -24 5 -21 -15 -63 -30 -64 -9 0 -11 -3 -5 -5 8 -3 -1
-42 -28 -121 -22 -64 -42 -128 -45 -142 -2 -14 -8 -28 -12 -31 -5 -3 -7 -13
-5 -22 1 -10 -2 -18 -7 -18 -5 0 -8 -3 -8 -7 5 -31 -2 -52 -16 -47 -8 4 -12
11 -8 18 3 6 2 7 -2 3 -14 -13 -14 -36 0 -31 7 3 16 1 20 -5 3 -6 -1 -11 -9
-11 -8 0 -18 -4 -21 -10 -3 -5 0 -7 8 -4 8 3 14 -2 14 -11 0 -9 -6 -14 -13
-11 -10 4 -11 -1 -4 -19 6 -15 6 -27 -1 -30 -5 -4 -7 -11 -4 -16 4 -5 -4 -10
-17 -10 -17 -1 -18 -3 -5 -6 9 -2 17 -11 17 -20 0 -9 -6 -13 -15 -9 -13 5 -14
2 -5 -15 6 -11 9 -32 5 -47 -3 -15 -7 -38 -10 -51 -2 -12 -10 -30 -17 -39 -7
-9 -8 -13 -2 -9 6 3 11 -1 11 -9 0 -8 -6 -13 -13 -10 -8 3 -16 1 -19 -5 -4 -5
-1 -8 6 -7 7 2 14 -6 16 -17 3 -16 2 -17 -6 -5 -9 13 -11 13 -11 -2 0 -10 5
-18 11 -18 5 0 7 -5 3 -11 -4 -6 -9 -34 -11 -63 -4 -50 -18 -80 -32 -71 -4 2
-8 -2 -8 -10 0 -20 13 -19 21 1 4 9 9 14 12 11 10 -9 -17 -48 -28 -41 -7 4 -8
3 -4 -5 4 -6 11 -9 16 -6 4 3 7 -10 6 -27 -2 -18 -4 -50 -5 -71 0 -23 -5 -36
-11 -32 -6 3 -10 1 -10 -4 0 -6 5 -11 10 -11 6 0 10 -9 10 -20 0 -11 -4 -20
-10 -20 -5 0 -10 -5 -10 -11 0 -5 4 -8 8 -5 10 6 9 -55 -1 -71 -5 -7 -4 -13 1
-13 5 0 8 -10 6 -22 -1 -13 -5 -42 -8 -66 -4 -27 -2 -41 4 -37 7 4 7 -3 0 -19
-5 -14 -6 -26 -2 -26 4 0 8 -9 8 -19 0 -11 -4 -17 -8 -15 -10 6 -11 -10 -1
-20 10 -10 11 -66 1 -66 -4 0 -8 -5 -8 -11 0 -5 4 -7 10 -4 5 3 10 1 10 -4 0
-6 -6 -11 -12 -11 -9 0 -9 -3 -3 -8 14 -9 17 -52 4 -52 -5 0 -9 -5 -9 -11 0
-5 5 -7 10 -4 10 6 13 -14 13 -87 1 -21 3 -38 7 -38 3 0 7 -11 8 -26 1 -14 -2
-23 -8 -19 -6 3 -10 1 -10 -4 0 -6 4 -11 9 -11 4 0 11 -19 15 -42 18 -116 18
-111 -6 -130 l-23 -18 27 10 c25 9 27 7 24 -13 -2 -12 1 -27 6 -34 6 -7 11
-35 11 -62 1 -27 5 -47 9 -45 7 5 9 -6 10 -68 1 -20 5 -35 10 -32 4 3 9 -2 9
-10 2 -25 4 -30 12 -43 5 -8 4 -13 -2 -13 -6 0 -11 -5 -11 -11 0 -5 4 -7 10
-4 5 3 10 2 10 -4 0 -5 -6 -12 -12 -14 -9 -4 -7 -6 3 -6 9 -1 16 -7 16 -13 0
-7 4 -21 8 -30 5 -12 3 -18 -6 -18 -9 0 -8 -4 3 -12 20 -17 44 -84 25 -72 -7
5 -6 2 3 -6 8 -8 17 -26 19 -40 1 -14 8 -33 13 -44 8 -14 0 -11 -28 10 -22 16
-33 21 -26 12 15 -19 7 -42 -10 -32 -7 5 -8 2 -4 -5 6 -9 13 -8 27 5 17 15 19
15 25 0 3 -9 12 -16 20 -16 8 0 14 -5 14 -11 0 -5 -4 -8 -9 -4 -5 3 -13 1 -16
-5 -4 -6 -1 -9 6 -8 13 3 43 -43 54 -82 5 -19 4 -21 -4 -10 -7 9 -11 10 -11 3
0 -7 6 -16 14 -20 21 -13 24 -37 7 -51 -14 -11 -14 -12 -1 -11 29 3 41 -1 35
-11 -4 -6 -11 -8 -16 -5 -5 4 -9 1 -9 -5 0 -7 7 -10 15 -7 8 4 17 1 21 -5 6
-10 8 -21 13 -66 0 -7 6 -10 13 -6 7 5 9 2 5 -9 -3 -9 -2 -17 3 -19 4 -2 10
-12 12 -23 1 -11 8 -24 14 -30 17 -15 26 -47 11 -39 -6 3 0 -5 15 -18 22 -20
25 -27 15 -38 -7 -7 -7 -10 -1 -7 14 8 37 -40 28 -56 -4 -7 -4 -9 1 -5 4 4 14
0 21 -10 9 -13 10 -20 1 -31 -10 -12 -9 -13 7 -8 13 5 17 3 13 -6 -3 -7 4 -19
14 -26 11 -6 17 -16 14 -21 -3 -5 1 -12 8 -17 14 -8 31 -42 29 -55 -1 -5 3 -8
10 -8 6 0 3 -7 -8 -15 -18 -14 -18 -15 6 -12 19 1 24 -2 22 -17 -2 -10 1 -15
6 -12 9 5 24 -16 26 -37 1 -4 7 -11 14 -15 9 -6 7 -14 -9 -31 -14 -15 -25 -19
-31 -13 -6 6 -17 8 -26 5 -11 -5 -13 -3 -7 7 5 8 4 11 -3 6 -6 -4 -9 -13 -5
-22 4 -10 9 -12 18 -4 9 8 14 7 18 -4 7 -18 -23 -46 -49 -46 -16 0 -17 -2 -4
-10 13 -9 7 -14 -12 -11 -5 0 -8 -3 -8 -7 0 -19 -48 -64 -60 -57 -8 5 -11 3
-8 -5 5 -17 -99 -123 -113 -114 -8 4 -9 3 -5 -4 8 -13 -73 -104 -86 -96 -5 3
-7 0 -6 -8 2 -8 -5 -12 -17 -10 -16 2 -17 1 -5 -7 8 -5 17 -8 21 -5 4 2 7 -5
6 -16 -1 -14 -6 -19 -17 -15 -13 4 -13 4 0 -7 17 -15 24 -68 9 -68 -6 0 -7 -6
-2 -12 10 -17 10 -118 1 -111 -5 2 -8 -1 -8 -6 0 -6 5 -11 10 -11 6 0 10 -4
10 -10 0 -5 -8 -7 -18 -4 -13 5 -14 4 -3 -4 15 -10 23 -115 9 -106 -4 3 -8 0
-8 -5 0 -6 5 -11 10 -11 6 0 10 -5 10 -11 0 -5 -5 -7 -12 -3 -7 5 -8 3 -3 -6
12 -20 15 -81 3 -74 -6 4 -7 0 -1 -12 10 -23 10 -45 0 -62 -5 -6 -5 -12 0 -12
4 0 9 -37 9 -83 2 -99 7 -135 22 -164 7 -12 9 -28 6 -36 -3 -8 2 -17 13 -21
17 -7 17 -8 -2 -23 -20 -15 -20 -15 3 -8 16 5 22 2 22 -9 0 -9 5 -16 11 -16 8
0 8 -5 -1 -15 -10 -12 -9 -16 4 -21 9 -3 13 -11 9 -17 -4 -6 -1 -7 7 -2 10 6
9 11 -5 22 -16 11 -16 13 -3 13 17 0 32 -26 22 -41 -3 -5 -2 -9 3 -8 21 4 33
-2 33 -16 0 -8 6 -15 13 -15 13 0 90 -48 119 -74 12 -11 18 -11 22 -3 3 9 5 9
5 0 1 -6 10 -9 21 -6 16 4 20 0 21 -23 1 -20 3 -23 6 -9 3 17 10 20 43 17 24
-3 40 -9 40 -17 0 -8 -8 -11 -19 -8 -22 6 -37 -12 -20 -23 8 -5 9 -3 4 6 -6
10 -3 12 15 7 16 -4 23 -1 27 13 4 14 14 18 49 18 24 0 42 -3 40 -6 -2 -4 2
-16 10 -27 8 -10 14 -14 14 -9 0 6 -4 14 -10 20 -6 6 -6 15 0 24 8 13 10 12
10 -2 0 -10 5 -18 11 -18 5 0 7 5 4 10 -3 6 -2 10 4 10 17 0 18 -25 2 -38 -13
-11 -12 -11 9 -1 14 7 27 11 30 10 2 -1 5 2 7 8 1 7 0 8 -4 1 -5 -11 -23 -4
-23 9 0 5 32 9 70 9 39 0 68 -3 66 -7 -3 -4 4 -12 15 -19 11 -7 19 -8 19 -2 0
5 -4 10 -10 10 -5 0 -10 4 -10 8 0 16 78 13 84 -3 3 -9 0 -15 -9 -15 -8 0 -15
-5 -15 -10 0 -7 6 -7 18 -1 9 5 21 9 27 9 5 0 10 5 12 11 1 7 0 8 -4 1 -5 -11
-23 -4 -23 9 0 14 293 12 302 -2 5 -8 8 -6 8 7 0 11 2 17 6 14 5 -5 20 9 104
100 17 17 33 32 37 32 3 0 -2 -9 -12 -20 -10 -11 -13 -20 -8 -20 10 0 25 24
28 45 0 6 7 9 14 7 9 -2 11 3 7 13 -4 10 3 19 19 27 13 6 22 15 19 20 -3 5 -2
8 3 7 19 -3 33 2 33 12 0 5 -6 7 -12 4 -7 -4 -4 0 7 9 11 8 31 25 44 38 16 16
25 19 28 11 3 -7 9 -13 15 -13 6 0 6 6 -2 15 -14 17 -5 35 18 35 14 0 15 -2 2
-10 -8 -5 -12 -11 -9 -15 3 -3 14 5 25 17 10 12 14 19 9 15 -6 -3 -17 -1 -25
5 -12 8 -12 9 2 4 10 -3 20 -1 23 4 4 6 1 10 -6 10 -6 0 -1 9 12 19 15 12 28
16 35 10 6 -5 13 -7 15 -4 3 2 19 -8 36 -23 16 -16 35 -26 41 -24 7 2 12 -4
12 -13 0 -10 -5 -13 -12 -9 -9 5 -9 3 1 -9 7 -9 16 -15 20 -13 4 3 13 1 21 -4
8 -5 19 -5 26 1 8 6 14 5 17 -6 4 -8 12 -12 20 -9 7 2 21 -4 31 -15 10 -11 23
-18 27 -15 5 3 9 -2 9 -10 0 -10 6 -13 16 -9 8 3 25 -4 38 -16 12 -12 26 -18
29 -14 4 3 7 1 7 -5 0 -7 3 -11 8 -10 4 1 33 -11 65 -26 55 -26 61 -33 58 -66
-2 -13 -1 -13 8 0 5 8 7 18 5 22 -3 4 2 8 11 8 10 0 13 -5 9 -12 -5 -8 -2 -9
9 -5 9 3 24 -1 33 -11 10 -9 20 -16 23 -15 10 4 81 -20 81 -27 0 -15 -14 -19
-24 -6 -8 10 -17 11 -31 5 -19 -9 -19 -9 2 -5 12 2 24 -1 26 -7 1 -5 11 -11
20 -13 9 -1 15 1 12 6 -3 4 2 11 10 14 17 6 59 -30 51 -43 -3 -4 1 -8 9 -8 11
0 12 4 4 14 -9 10 -8 13 5 13 9 0 16 -4 16 -8 0 -4 9 -8 19 -9 11 -1 52 -13
90 -27 39 -14 71 -23 71 -20 0 4 6 2 13 -4 12 -10 17 -12 38 -12 6 0 8 -10 5
-22 -3 -13 -3 -17 0 -10 3 6 11 9 16 6 7 -4 8 -2 4 4 -12 20 23 13 41 -8 10
-11 24 -20 33 -19 11 0 9 3 -5 10 -17 8 -16 8 5 3 14 -3 35 -6 48 -6 12 0 22
-5 22 -11 0 -6 3 -8 6 -5 3 4 20 2 37 -3 38 -12 58 -16 112 -24 54 -9 79 -13
85 -15 3 -1 8 -2 13 -1 13 2 7 -17 -7 -22 -8 -3 -17 1 -19 9 -3 9 -4 7 -3 -3
1 -10 8 -16 17 -14 8 2 22 4 31 5 9 0 14 4 11 8 -7 13 46 1 65 -14 12 -10 14
-10 8 0 -4 7 -1 12 9 12 12 0 15 -6 10 -22 -5 -21 -5 -21 9 2 14 22 15 23 16
5 0 -13 3 -16 8 -8 8 13 52 14 52 1 0 -4 -8 -12 -17 -17 -10 -6 -13 -11 -6
-11 6 0 19 10 27 22 9 12 16 18 16 13 0 -6 24 -10 53 -9 61 1 79 -4 71 -18 -4
-6 -9 -6 -14 2 -5 8 -9 8 -13 -3 -4 -12 0 -15 15 -12 12 3 26 10 31 17 6 9 10
10 13 2 3 -6 12 -20 20 -30 14 -18 15 -18 5 3 -15 31 -15 32 22 26 17 -3 74
-6 125 -6 50 -1 92 -5 92 -9 0 -4 -5 -7 -11 -6 -6 2 -13 -3 -14 -10 -2 -7 -1
-8 2 -2 2 5 9 8 14 4 5 -3 12 2 15 10 3 9 10 13 15 10 5 -3 7 -10 4 -15 -4 -5
-1 -17 5 -26 11 -17 11 -17 6 0 -6 20 2 47 15 47 5 0 8 -10 6 -22 -2 -13 -2
-17 0 -9 4 12 6 12 15 0 8 -11 9 -10 4 4 -3 9 -2 17 2 18 44 5 52 5 52 -3 0
-4 5 -8 11 -8 5 0 8 4 5 8 -3 5 2 9 10 9 8 0 13 -6 10 -13 -3 -9 1 -11 11 -7
10 4 14 2 10 -4 -3 -5 0 -10 7 -10 7 0 13 6 13 13 0 7 -4 11 -8 8 -4 -2 -10 0
-14 6 -4 7 11 9 44 6 32 -3 51 0 51 6 0 7 4 7 13 -1 10 -8 17 -7 26 2 11 9 14
9 18 -1 4 -10 8 -10 19 -2 24 20 37 1 19 -28 l-16 -27 20 24 c12 12 18 27 15
32 -3 5 1 9 9 9 8 0 17 -7 21 -15 6 -17 36 -9 36 10 0 7 12 13 26 13 18 0 22
-3 13 -9 -11 -7 -11 -9 -1 -9 7 0 15 6 18 14 3 9 16 14 32 12 15 -1 35 1 44 6
12 6 18 3 23 -12 7 -23 13 -24 35 -9 13 8 12 9 -4 7 -10 -2 -21 2 -23 8 -5 14
28 15 45 1 7 -5 15 -7 19 -3 3 3 1 6 -5 6 -7 0 -12 4 -12 8 0 13 30 10 30 -2
0 -6 6 -4 13 4 13 17 24 20 77 24 20 1 42 6 50 11 8 5 11 3 8 -6 -3 -8 -15
-14 -27 -13 -15 0 -19 -2 -11 -10 7 -7 16 -7 30 2 22 13 53 6 43 -11 -4 -6 -1
-7 7 -2 10 6 7 12 -10 25 -14 10 -19 20 -12 24 6 3 13 0 15 -6 4 -10 6 -10 6
0 1 15 31 16 31 1 0 -5 -4 -7 -10 -4 -5 3 -10 1 -10 -4 0 -18 20 -13 28 7 4 9
12 18 17 18 6 1 21 5 33 9 21 6 23 5 13 -13 -19 -35 -12 -39 9 -4 11 17 25 32
31 32 8 0 8 -4 0 -14 -9 -11 -9 -16 0 -22 7 -4 10 -3 6 2 -8 13 20 47 32 40 5
-4 12 -2 16 4 9 15 27 12 20 -2 -4 -7 0 -5 8 5 14 17 33 25 23 9 -2 -4 2 -16
10 -27 8 -10 14 -14 14 -9 0 6 -5 15 -11 21 -8 8 -3 16 20 27 17 9 32 17 34
19 2 1 11 -6 21 -16 21 -20 36 -14 36 14 0 11 4 18 9 14 5 -3 12 -1 16 4 3 6
13 7 22 4 12 -5 14 -3 8 7 -5 9 -4 11 3 6 7 -4 12 -3 12 3 0 5 8 8 18 7 9 -2
17 -9 17 -17 0 -8 11 -15 25 -16 21 -2 22 -1 5 5 -19 7 -35 44 -18 41 9 -2 40
8 66 22 9 5 17 6 17 1 0 -4 10 -8 21 -9 21 -2 21 -1 3 12 -18 14 -17 14 12 9
22 -4 34 -1 44 13 12 15 12 16 0 5 -8 -6 -19 -12 -25 -12 -15 1 27 24 50 27
11 2 24 8 29 13 6 6 18 10 28 10 10 0 18 5 18 10 0 6 5 10 11 10 6 0 8 -9 4
-22 -7 -22 -6 -22 8 -4 14 19 14 19 25 0 6 -10 12 -15 12 -10 0 5 -7 18 -17
28 -13 14 -13 18 -2 19 31 3 36 5 53 21 14 15 21 16 39 6 21 -11 21 -10 7 7
-14 17 -13 18 3 12 9 -3 17 -2 17 4 0 6 5 7 10 4 6 -3 10 -2 10 2 0 5 9 14 20
21 19 12 20 11 15 -15 -5 -27 -5 -27 5 -4 8 18 13 21 24 12 11 -9 16 -9 22 0
4 7 3 9 -3 6 -6 -4 -16 0 -23 8 -11 13 -10 14 6 9 10 -4 16 -4 12 1 -12 13 22
32 48 27 14 -3 21 -10 19 -21 -2 -10 3 -17 14 -17 10 0 18 6 18 12 0 7 -6 10
-13 7 -17 -6 -11 26 7 38 9 5 10 9 2 9 -6 0 -15 -4 -18 -10 -3 -5 -14 -10 -23
-9 -9 0 0 9 21 18 21 10 43 23 50 30 6 6 16 11 22 11 5 0 3 -5 -5 -10 -11 -7
-12 -10 -2 -10 8 0 16 9 19 19 6 23 30 35 39 19 5 -7 2 -8 -7 -3 -8 5 -10 4
-6 0 4 -5 14 -10 23 -11 12 -2 13 1 4 11 -13 16 -4 39 11 30 5 -4 12 1 15 10
6 14 8 14 25 -1 11 -10 19 -12 19 -6 0 7 -6 12 -12 12 -7 0 -1 11 12 24 19 18
28 21 39 12 8 -6 12 -6 9 -1 -3 6 3 18 12 28 17 18 18 18 33 -3 12 -17 16 -18
20 -6 4 9 1 15 -5 13 -6 -1 -13 4 -16 12 -3 8 0 11 7 7 6 -4 11 -1 11 7 0 8 6
17 14 20 17 7 39 -16 28 -29 -4 -4 1 -2 10 5 18 13 15 36 -3 26 -17 -11 -9 12
10 29 12 11 21 14 26 7 8 -14 25 -14 25 0 0 5 -4 7 -10 4 -5 -3 -10 -2 -10 3
0 18 13 20 39 5 16 -9 20 -10 11 -2 -21 20 -25 43 -5 36 8 -4 15 -1 15 6 0 7
16 23 35 35 19 13 48 37 64 53 31 29 79 41 65 17 -4 -7 -3 -9 1 -5 16 14 14
36 -3 30 -12 -5 -11 -1 4 14 17 18 21 18 37 5 9 -8 17 -10 17 -4 0 6 -6 13
-12 16 -10 3 -8 9 4 19 10 8 16 17 13 20 -3 4 -2 5 2 2 3 -2 16 6 28 19 16 17
26 21 33 14 11 -11 35 -1 27 12 -3 4 2 10 10 14 8 3 12 11 10 18 -6 15 69 98
87 98 6 0 17 -8 25 -17 13 -16 13 -16 4 4 -6 12 -16 24 -23 26 -7 3 -5 6 6 6
11 1 16 4 12 8 -9 9 75 94 86 87 5 -4 8 0 6 7 -1 8 1 14 6 14 5 0 12 10 17 22
4 12 16 22 26 22 38 1 53 5 53 13 0 11 -7 10 -31 -2 -13 -7 -19 -7 -19 0 0 5
5 10 11 10 5 0 7 4 4 10 -3 5 9 19 27 30 18 11 27 20 20 20 -7 0 -2 12 13 28
14 15 35 42 46 60 23 35 29 38 48 20 11 -11 12 -9 3 8 -12 22 7 60 44 90 10 8
12 13 4 9 -10 -4 -9 -2 2 8 10 8 15 17 11 20 -3 4 -1 7 6 7 7 0 10 4 7 9 -8
12 20 34 33 27 5 -4 13 -2 16 4 4 6 3 10 -2 9 -20 -3 -22 2 -6 20 9 11 21 17
27 14 6 -4 4 2 -4 12 -14 17 -13 18 3 12 13 -5 17 -3 14 5 -6 18 12 50 23 43
6 -4 7 1 3 11 -4 12 -3 15 6 10 8 -5 11 -3 10 5 -4 22 33 89 48 89 8 0 12 4 8
9 -4 8 21 64 50 111 5 8 10 17 10 20 0 3 6 14 12 25 10 17 13 17 30 5 17 -13
17 -13 1 4 -13 15 -14 23 -5 40 7 11 16 24 22 28 5 4 6 10 2 14 -4 4 1 13 11
21 11 10 12 12 2 8 -12 -5 -12 -4 1 7 9 7 14 19 11 27 -3 9 0 11 8 6 8 -5 11
-1 9 11 -1 11 8 41 19 67 12 27 22 53 22 58 0 5 4 9 10 9 5 0 9 3 8 8 -1 4 3
22 9 39 9 25 16 31 30 27 17 -6 17 -6 0 7 -17 14 -15 49 2 49 4 0 7 8 8 18 1
9 7 31 14 47 7 17 11 34 10 39 -1 4 3 14 9 20 5 7 6 17 2 21 -4 5 -1 4 7 0 11
-6 13 -4 8 9 -4 9 0 33 8 52 8 19 11 34 8 34 -3 0 0 6 6 13 6 8 8 17 4 20 -3
4 -2 7 4 7 6 0 14 7 17 16 3 8 2 12 -4 9 -6 -3 -10 -1 -10 4 0 6 7 11 15 11 8
0 15 5 15 11 0 5 -4 7 -10 4 -15 -10 -12 12 5 28 11 12 12 17 2 20 -8 4 -9 8
-2 14 10 7 13 21 17 70 1 7 7 14 15 17 7 3 13 11 13 18 0 9 -3 9 -11 -2 -8
-12 -9 -11 -7 5 3 14 10 19 23 17 19 -3 19 -3 1 10 -21 16 -14 64 7 51 7 -4 7
-1 -1 9 -10 12 -10 22 -3 35 5 10 9 25 9 33 -1 8 0 30 0 48 2 30 3 32 18 18
23 -24 25 -19 6 14 -15 27 -15 32 -2 40 12 7 12 10 1 10 -9 0 -11 6 -6 18 4 9
7 29 6 45 -1 15 4 27 10 27 8 0 9 4 0 13 -6 8 -9 16 -6 19 4 3 8 39 14 116 1
7 5 11 9 8 5 -3 9 1 9 9 0 8 -3 12 -7 10 -4 -2 -7 9 -8 26 0 19 3 27 10 23 7
-5 8 -2 2 7 -15 24 -13 39 4 40 14 0 13 2 -3 9 -11 5 -14 9 -6 9 10 1 11 4 3
14 -7 8 -7 18 -2 27 5 8 6 18 3 24 -4 5 2 7 13 3 18 -7 18 -6 -1 9 -11 8 -18
21 -16 27 7 23 7 126 0 121 -14 -8 4 41 20 55 15 12 14 13 -1 8 -19 -7 -19 -7
-22 40 -1 17 2 29 6 27 4 -3 8 0 8 5 0 6 -4 11 -8 11 -4 0 -9 11 -10 25 -1 14
4 25 11 25 8 0 8 3 -2 9 -8 5 -12 19 -9 35 3 14 2 26 -1 26 -3 0 -7 21 -8 46
-2 35 0 44 10 38 7 -5 6 -2 -3 6 -9 9 -17 32 -17 55 0 22 -5 57 -11 77 -7 26
-7 40 0 44 7 4 7 9 0 13 -6 4 -12 24 -13 46 -1 22 -5 45 -8 50 -7 12 -9 28
-13 75 -2 19 -5 37 -8 40 -12 12 -27 91 -18 96 5 3 1 12 -9 20 -10 7 -14 14
-10 14 4 0 3 9 -3 19 -7 14 -7 22 1 26 6 5 4 11 -6 19 -10 7 -17 28 -18 53 -1
23 -5 39 -9 37 -3 -2 -9 0 -12 5 -4 5 2 12 11 14 14 4 15 5 2 6 -11 1 -20 19
-29 56 -7 31 -17 58 -22 61 -5 3 -6 9 -3 14 3 5 1 11 -4 15 -6 3 -8 12 -4 20
3 8 0 15 -7 15 -7 0 -10 8 -7 20 3 11 2 20 -2 20 -13 0 -31 49 -24 67 4 10 2
14 -4 10 -11 -7 -40 69 -34 93 1 8 0 12 -5 8 -7 -7 -22 15 -37 55 -5 13 -3 16
6 12 6 -4 3 1 -7 9 -11 9 -16 16 -12 16 4 0 0 7 -8 16 -14 13 -18 28 -15 50 0
4 -5 10 -12 15 -10 6 -10 11 1 23 11 14 10 16 -3 10 -11 -4 -22 7 -38 38 -13
24 -24 49 -25 57 -2 8 -7 17 -12 20 -15 10 -61 99 -55 105 4 3 1 6 -5 6 -7 0
-12 7 -12 15 0 8 -4 15 -9 15 -5 0 -14 14 -21 30 -7 17 -16 30 -21 30 -5 0 -9
5 -9 11 0 6 7 9 15 5 13 -4 13 -2 5 14 -14 26 -13 30 8 24 14 -5 15 -4 2 5
-13 10 -12 14 9 31 13 11 19 20 15 21 -5 0 -17 2 -26 4 -9 2 -19 -3 -22 -10
-3 -9 0 -12 10 -8 14 5 14 3 3 -15 -12 -19 -14 -19 -26 -4 -12 15 -13 14 -3
-5 6 -13 7 -23 3 -23 -4 0 -1 -5 7 -11 13 -9 13 -10 0 -6 -8 2 -14 10 -13 16
2 6 -2 11 -8 11 -5 0 -7 5 -4 10 3 6 0 10 -7 11 -7 0 -3 5 9 11 13 6 25 20 29
31 5 16 8 17 15 6 7 -11 9 -10 9 4 0 9 4 17 10 17 5 0 9 -5 7 -11 -1 -6 5 -14
13 -16 13 -4 13 -3 0 6 -8 6 -13 11 -10 12 34 6 43 9 48 15 4 4 -1 4 -10 1
-11 -4 -18 -1 -18 6 0 8 -3 8 -9 -2 -6 -9 -11 -10 -15 -2 -7 10 6 16 28 12 5
-1 6 4 4 11 -3 7 4 21 14 31 10 9 18 14 18 11 0 -3 7 2 16 11 12 12 19 13 30
4 8 -6 11 -16 7 -22 -3 -5 -1 -7 5 -4 13 9 9 42 -6 43 -7 1 -15 2 -19 3 -5 1
17 15 47 32 49 27 51 31 5 13 -9 -4 -1 9 17 27 20 20 41 32 53 31 16 -2 17 -1
6 7 -12 8 -12 12 -2 25 7 9 17 13 22 10 5 -3 9 -1 9 4 0 5 16 25 35 45 19 20
35 44 35 53 0 9 8 23 18 30 15 12 15 12 -7 7 -21 -5 -23 -4 -16 13 4 10 7 27
7 37 -1 14 2 16 12 8 9 -8 13 -7 13 4 0 8 -3 12 -7 10 -3 -2 -12 0 -20 6 -10
6 -11 9 -2 9 6 0 12 5 12 11 0 5 -5 7 -11 3 -8 -5 -8 -1 0 14 13 24 14 35 3
28 -13 -8 -6 42 8 59 11 13 10 15 -5 9 -15 -6 -16 -4 -6 15 7 12 9 25 6 30 -3
5 1 12 7 14 7 3 4 6 -7 6 -17 1 -17 3 -5 11 8 5 10 10 3 10 -6 0 -10 8 -8 18
2 9 4 21 4 25 1 5 7 5 14 2 6 -4 4 0 -6 8 -16 14 -16 16 -2 31 15 15 15 16 0
16 -12 0 -15 5 -10 18 4 9 7 25 7 35 -1 16 2 16 15 6 19 -16 41 -20 48 -9 3 5
-3 7 -12 5 -10 -1 -28 5 -41 15 l-22 19 22 16 c22 16 22 16 2 11 -14 -4 -21
-2 -21 9 0 8 4 15 9 15 5 0 4 8 -1 18 -5 10 -6 24 -1 32 4 7 4 24 0 36 -6 15
-5 24 3 28 9 3 9 5 -1 5 -10 1 -10 6 -1 22 6 12 7 19 1 15 -5 -3 -12 8 -14 24
-3 17 0 30 6 30 6 0 4 5 -5 10 -15 9 -35 55 -31 73 1 4 -3 7 -9 7 -6 0 -8 7
-5 16 3 8 2 12 -4 9 -6 -3 -10 -2 -10 3 0 18 -106 133 -114 124 -4 -3 -6 3 -6
13 0 10 -3 15 -7 11 -4 -3 -13 6 -20 21 -10 22 -11 23 -7 5 5 -21 4 -22 -14
-11 -12 7 -19 15 -17 19 2 3 -10 6 -27 6 -17 1 -33 5 -37 10 -3 5 -10 10 -16
11 -5 0 -27 4 -49 7 -21 4 -42 9 -47 12 -5 3 -9 -1 -9 -8 0 -10 -2 -10 -9 1
-5 8 -11 9 -15 3 -3 -5 -17 -7 -31 -5 -15 3 -22 10 -18 17 5 8 3 8 -8 0 -8 -7
-34 -12 -58 -12 -24 -1 -45 -3 -48 -6 -3 -2 -16 -1 -29 4 -15 6 -34 6 -49 0
-13 -5 -27 -5 -30 -1 -3 5 -20 6 -37 2 -18 -4 -45 -4 -60 0 -16 4 -40 4 -55 0
-16 -4 -42 -4 -60 0 -21 4 -34 3 -37 -5 -3 -7 -5 -7 -5 0 -1 6 -26 9 -68 6
-38 -2 -81 -4 -98 -4 -16 0 -24 -3 -16 -6 9 -3 5 -11 -15 -29 -15 -13 -34 -21
-42 -18 -11 4 -12 2 -4 -7 8 -10 -5 -28 -52 -74 -35 -33 -68 -58 -75 -56 -6 2
-11 0 -10 -5 4 -22 -2 -35 -15 -30 -10 4 -13 1 -9 -9 4 -12 -7 -19 -29 -15 -4
0 -5 -6 -2 -13 6 -16 -29 -40 -40 -28 -4 3 -4 -2 0 -12 5 -14 4 -17 -4 -12 -7
4 -12 3 -12 -2 0 -13 -47 -62 -60 -62 -6 0 -9 -4 -5 -9 17 -28 -72 16 -113 56
-8 7 -18 10 -24 7 -7 -4 -8 -2 -4 4 5 8 -1 12 -14 12 -14 0 -19 4 -14 12 5 7
2 9 -9 5 -8 -3 -21 1 -27 9 -7 8 -16 14 -21 14 -5 0 -27 11 -48 24 -21 14 -42
22 -45 19 -3 -4 -6 -2 -6 4 0 6 -11 14 -25 17 -15 4 -23 11 -19 18 4 6 1 9 -7
6 -21 -8 -91 30 -83 45 5 9 4 9 -5 1 -10 -9 -21 -8 -44 4 -38 18 -47 30 -40
51 4 14 3 14 -5 1 -6 -8 -8 -18 -6 -22 3 -4 0 -8 -5 -8 -6 0 -11 5 -11 10 0 6
-9 10 -20 10 -11 0 -23 6 -26 14 -3 8 -13 17 -21 20 -13 5 -14 4 -3 -9 11 -14
10 -14 -16 0 -16 8 -35 15 -41 15 -7 0 -13 4 -13 8 0 4 6 14 13 22 10 12 9 12
-6 1 -18 -14 -57 -8 -126 22 -14 6 -30 11 -35 11 -5 1 -12 10 -17 21 -7 17 -8
18 -8 2 -1 -15 -4 -16 -23 -5 -13 6 -32 13 -43 13 -32 3 -99 29 -113 45 -9 10
-11 11 -6 1 4 -9 2 -12 -7 -9 -8 3 -13 11 -11 18 2 10 0 11 -11 2 -17 -15 -73
0 -69 18 3 11 0 11 -13 0 -11 -9 -22 -10 -38 -3 -12 6 -53 16 -92 23 -38 7
-77 15 -85 17 -14 5 -43 10 -103 17 -16 2 -32 9 -37 16 -4 7 -9 8 -11 3 -2 -5
-23 -7 -46 -5 -29 3 -41 8 -36 16 4 7 1 7 -9 -1 -8 -7 -18 -10 -21 -7 -4 4
-35 8 -69 10 -107 6 -170 13 -175 18 -3 3 -14 1 -24 -4 -14 -8 -21 -6 -30 12
-7 13 -11 25 -10 26 2 2 0 6 -3 8 -3 2 -4 1 -1 -3z m2551 -6765 c-9 -5 -14
-13 -11 -19 4 -5 1 -9 -4 -9 -6 0 -11 5 -11 10 0 16 24 39 34 33 5 -3 1 -10
-8 -15z m-4672 -543 c4 -12 2 -13 -13 -6 -10 6 -22 7 -26 3 -5 -4 -5 -1 -1 6
10 17 33 15 40 -3z m3166 -361 c0 -8 -4 -12 -10 -9 -5 3 -10 10 -10 16 0 5 5
9 10 9 6 0 10 -7 10 -16z m-805 -153 c3 -5 1 -12 -5 -16 -5 -3 -10 1 -10 9 0
18 6 21 15 7z"/>
<path d="M4415 8181 c-3 -5 -2 -12 3 -15 5 -3 9 1 9 9 0 17 -3 19 -12 6z"/>
<path d="M4540 8186 c0 -2 8 -10 18 -17 15 -13 16 -12 3 4 -13 16 -21 21 -21
13z"/>
<path d="M4630 8180 c0 -5 5 -10 10 -10 6 0 10 5 10 10 0 6 -4 10 -10 10 -5 0
-10 -4 -10 -10z"/>
<path d="M4153 8165 c0 -8 4 -12 9 -9 5 3 6 10 3 15 -9 13 -12 11 -12 -6z"/>
<path d="M4235 8171 c-3 -5 -2 -12 3 -15 5 -3 9 1 9 9 0 17 -3 19 -12 6z"/>
<path d="M4594 8169 c-3 -6 -2 -15 3 -20 5 -5 9 -1 9 11 0 23 -2 24 -12 9z"/>
<path d="M3733 8155 c0 -8 4 -12 9 -9 5 3 6 10 3 15 -9 13 -12 11 -12 -6z"/>
<path d="M3846 8162 c-3 -5 1 -9 9 -9 8 0 12 4 9 9 -3 4 -7 8 -9 8 -2 0 -6 -4
-9 -8z"/>
<path d="M4693 8155 c0 -8 4 -12 9 -9 5 3 6 10 3 15 -9 13 -12 11 -12 -6z"/>
<path d="M3800 8140 c-23 -7 -23 -8 -3 -9 12 -1 25 4 28 9 3 6 5 10 3 9 -2 -1
-14 -5 -28 -9z"/>
<path d="M4907 8139 c7 -7 15 -10 18 -7 3 3 -2 9 -12 12 -14 6 -15 5 -6 -5z"/>
<path d="M4846 8121 c-3 -5 1 -11 9 -14 9 -4 12 -1 8 9 -6 16 -10 17 -17 5z"/>
<path d="M3396 8093 c-6 -14 -5 -15 5 -6 7 7 10 15 7 18 -3 3 -9 -2 -12 -12z"/>
<path d="M3315 8082 c3 -3 1 -10 -5 -16 -6 -8 -2 -12 13 -13 12 0 16 1 9 4 -9
3 -10 9 -3 17 8 9 6 13 -4 13 -8 0 -13 -3 -10 -5z"/>
<path d="M5055 8080 c-3 -5 -1 -10 4 -10 6 0 11 5 11 10 0 6 -2 10 -4 10 -3 0
-8 -4 -11 -10z"/>
<path d="M5101 8074 c0 -11 3 -14 6 -6 3 7 2 16 -1 19 -3 4 -6 -2 -5 -13z"/>
<path d="M5194 8073 c16 -20 36 -23 36 -6 0 4 -3 3 -7 0 -3 -4 -16 1 -27 10
-21 18 -21 18 -2 -4z"/>
<path d="M5149 8063 c-13 -16 -12 -17 4 -4 9 7 17 15 17 17 0 8 -8 3 -21 -13z"/>
<path d="M3040 8006 c0 -2 8 -10 18 -17 15 -13 16 -12 3 4 -13 16 -21 21 -21
13z"/>
<path d="M5413 7995 c0 -8 4 -12 9 -9 5 3 6 10 3 15 -9 13 -12 11 -12 -6z"/>
<path d="M5375 7991 c-3 -5 -2 -12 3 -15 5 -3 9 1 9 9 0 17 -3 19 -12 6z"/>
<path d="M5587 7959 c7 -7 15 -10 18 -7 3 3 -2 9 -12 12 -14 6 -15 5 -6 -5z"/>
<path d="M5676 7958 c3 -5 10 -6 15 -3 13 9 11 12 -6 12 -8 0 -12 -4 -9 -9z"/>
<path d="M7450 7960 c0 -5 5 -10 11 -10 5 0 7 5 4 10 -3 6 -8 10 -11 10 -2 0
-4 -4 -4 -10z"/>
<path d="M5510 7956 c0 -2 8 -10 18 -17 15 -13 16 -12 3 4 -13 16 -21 21 -21
13z"/>
<path d="M6950 7946 c0 -2 7 -7 16 -10 8 -3 12 -2 9 4 -6 10 -25 14 -25 6z"/>
<path d="M7110 7940 c-13 -8 -12 -10 3 -10 9 0 17 5 17 10 0 12 -1 12 -20 0z"/>
<path d="M7280 7940 c-12 -7 -10 -9 7 -7 12 0 19 5 17 9 -6 10 -6 10 -24 -2z"/>
<path d="M7535 7940 c-3 -5 -1 -10 4 -10 6 0 11 5 11 10 0 6 -2 10 -4 10 -3 0
-8 -4 -11 -10z"/>
<path d="M6675 7931 c-3 -5 -2 -12 3 -15 5 -3 9 1 9 9 0 17 -3 19 -12 6z"/>
<path d="M2810 7920 c0 -5 5 -10 11 -10 5 0 7 5 4 10 -3 6 -8 10 -11 10 -2 0
-4 -4 -4 -10z"/>
<path d="M5585 7919 c-3 -4 2 -6 10 -5 21 3 28 13 10 13 -9 0 -18 -4 -20 -8z"/>
<path d="M2788 7898 c5 -5 16 -8 23 -6 8 3 3 7 -10 11 -17 4 -21 3 -13 -5z"/>
<path d="M2755 7891 c-3 -5 -2 -12 3 -15 5 -3 9 1 9 9 0 17 -3 19 -12 6z"/>
<path d="M5673 7885 c0 -8 4 -15 9 -15 4 0 8 4 8 9 0 6 -4 12 -8 15 -5 3 -9
-1 -9 -9z"/>
<path d="M5756 7867 c3 -10 9 -15 12 -12 3 3 0 11 -7 18 -10 9 -11 8 -5 -6z"/>
<path d="M5835 7843 c3 -3 0 -11 -5 -18 -7 -8 -5 -12 4 -12 14 0 16 22 3 32
-4 3 -5 2 -2 -2z"/>
<path d="M6635 7830 c-3 -6 1 -7 9 -4 18 7 21 14 7 14 -6 0 -13 -4 -16 -10z"/>
<path d="M6600 7815 c-7 -9 -11 -17 -9 -20 3 -2 10 5 17 15 14 24 10 26 -8 5z"/>
<path d="M7755 7811 c-3 -5 -2 -12 3 -15 5 -3 9 1 9 9 0 17 -3 19 -12 6z"/>
<path d="M5953 7769 c-2 -23 3 -25 10 -4 4 8 3 16 -1 19 -4 3 -9 -4 -9 -15z"/>
<path d="M6559 7788 c-5 -18 -6 -38 -1 -34 7 8 12 36 6 36 -2 0 -4 -1 -5 -2z"/>
<path d="M2365 7760 c-3 -6 1 -7 9 -4 18 7 21 14 7 14 -6 0 -13 -4 -16 -10z"/>
<path d="M6520 7755 c-7 -8 -17 -12 -23 -8 -6 4 -7 1 -3 -6 6 -9 13 -8 27 5
10 9 19 19 19 21 0 7 -8 2 -20 -12z"/>
<path d="M2433 7745 c0 -8 4 -12 9 -9 5 3 6 10 3 15 -9 13 -12 11 -12 -6z"/>
<path d="M7810 7746 c0 -2 7 -7 16 -10 8 -3 12 -2 9 4 -6 10 -25 14 -25 6z"/>
<path d="M7916 7722 c-3 -5 1 -9 9 -9 8 0 12 4 9 9 -3 4 -7 8 -9 8 -2 0 -6 -4
-9 -8z"/>
<path d="M6073 7707 c0 -8 6 -14 14 -14 9 0 10 4 2 14 -6 7 -12 13 -14 13 -1
0 -2 -6 -2 -13z"/>
<path d="M2300 7685 c0 -2 6 -8 13 -14 10 -8 14 -7 14 2 0 8 -6 14 -14 14 -7
0 -13 -1 -13 -2z"/>
<path d="M6159 7688 c-6 -20 -6 -39 0 -42 4 -3 7 6 7 20 0 20 -4 32 -7 22z"/>
<path d="M6210 7663 c0 -6 8 -17 18 -24 16 -13 16 -13 2 6 -8 11 -16 22 -17
24 -2 2 -3 0 -3 -6z"/>
<path d="M2250 7640 c-9 -6 -10 -10 -3 -10 6 0 15 5 18 10 8 12 4 12 -15 0z"/>
<path d="M7890 7645 c0 -5 5 -17 10 -25 5 -8 10 -10 10 -5 0 6 -5 17 -10 25
-5 8 -10 11 -10 5z"/>
<path d="M6404 7615 c-4 -8 -10 -12 -15 -9 -5 3 -6 -2 -3 -11 7 -18 7 -18 23
13 6 12 9 22 6 22 -3 0 -8 -7 -11 -15z"/>
<path d="M6335 7610 c-4 -6 -11 -8 -16 -5 -5 4 -9 2 -9 -4 0 -19 16 -19 28 0
7 10 10 19 8 19 -3 0 -8 -5 -11 -10z"/>
<path d="M2160 7600 c-9 -6 -10 -10 -3 -10 6 0 15 5 18 10 8 12 4 12 -15 0z"/>
<path d="M2095 7580 c-3 -5 -1 -10 4 -10 6 0 11 5 11 10 0 6 -2 10 -4 10 -3 0
-8 -4 -11 -10z"/>
<path d="M6266 7578 c3 -4 11 -5 19 -1 21 7 19 12 -4 10 -11 0 -18 -5 -15 -9z"/>
<path d="M6370 7581 c0 -7 -4 -10 -9 -6 -5 3 -16 -2 -25 -10 -9 -9 -17 -11
-21 -5 -3 5 -11 10 -17 10 -6 0 -1 -9 12 -20 24 -21 35 -26 27 -12 -3 4 1 13
9 20 11 10 14 10 14 0 0 -7 5 -5 11 5 6 10 8 21 5 24 -3 4 -6 1 -6 -6z"/>
<path d="M2125 7559 c-11 -16 -1 -19 13 -3 7 8 8 14 3 14 -5 0 -13 -5 -16 -11z"/>
<path d="M1995 7531 c-3 -5 -2 -12 3 -15 5 -3 9 1 9 9 0 17 -3 19 -12 6z"/>
<path d="M2030 7522 c0 -5 7 -9 15 -9 8 0 12 4 9 9 -3 4 -9 8 -15 8 -5 0 -9
-4 -9 -8z"/>
<path d="M7930 7500 c0 -5 5 -10 11 -10 5 0 7 5 4 10 -3 6 -8 10 -11 10 -2 0
-4 -4 -4 -10z"/>
<path d="M7910 7401 c0 -5 8 -15 18 -22 15 -12 16 -12 5 2 -7 9 -10 19 -6 22
3 4 1 7 -5 7 -7 0 -12 -4 -12 -9z"/>
<path d="M1839 7398 c-5 -18 -6 -38 -1 -34 7 8 12 36 6 36 -2 0 -4 -1 -5 -2z"/>
<path d="M1790 7366 c0 -3 9 -10 20 -16 11 -6 20 -8 20 -6 0 3 -9 10 -20 16
-11 6 -20 8 -20 6z"/>
<path d="M1715 7300 c-3 -5 -1 -10 4 -10 6 0 11 5 11 10 0 6 -2 10 -4 10 -3 0
-8 -4 -11 -10z"/>
<path d="M1595 7200 c-4 -6 -1 -9 7 -8 7 2 12 -3 10 -10 -1 -8 2 -11 8 -7 8 5
7 11 -1 21 -14 17 -16 17 -24 4z"/>
<path d="M7910 7206 c0 -2 7 -7 16 -10 8 -3 12 -2 9 4 -6 10 -25 14 -25 6z"/>
<path d="M7950 7200 c0 -5 5 -10 11 -10 5 0 7 5 4 10 -3 6 -8 10 -11 10 -2 0
-4 -4 -4 -10z"/>
<path d="M1577 7156 c-4 -10 -1 -13 8 -9 8 3 12 9 9 14 -7 12 -11 11 -17 -5z"/>
<path d="M1560 7115 c-7 -8 -17 -12 -23 -8 -6 4 -7 1 -3 -6 6 -9 13 -8 27 5
10 9 19 19 19 21 0 7 -8 2 -20 -12z"/>
<path d="M1513 7085 c0 -8 4 -12 9 -9 5 3 6 10 3 15 -9 13 -12 11 -12 -6z"/>
<path d="M7911 7013 c-1 -17 16 -25 25 -12 4 7 3 9 -4 5 -5 -3 -13 0 -15 6 -4
9 -6 10 -6 1z"/>
<path d="M1315 6951 c-3 -5 -2 -12 3 -15 5 -3 9 1 9 9 0 17 -3 19 -12 6z"/>
<path d="M1160 6740 c-9 -6 -10 -10 -3 -10 6 0 15 5 18 10 8 12 4 12 -15 0z"/>
<path d="M7870 6721 c0 -6 4 -13 10 -16 6 -3 7 1 4 9 -7 18 -14 21 -14 7z"/>
<path d="M7919 6713 c-13 -16 -12 -17 4 -4 9 7 17 15 17 17 0 8 -8 3 -21 -13z"/>
<path d="M7806 6681 c-3 -5 1 -11 9 -14 9 -4 12 -1 8 9 -6 16 -10 17 -17 5z"/>
<path d="M7856 6673 c-6 -14 -5 -15 5 -6 7 7 10 15 7 18 -3 3 -9 -2 -12 -12z"/>
<path d="M1097 6631 c-4 -17 -3 -21 5 -13 5 5 8 16 6 23 -3 8 -7 3 -11 -10z"/>
<path d="M7767 6636 c-4 -10 -1 -13 8 -9 8 3 12 9 9 14 -7 12 -11 11 -17 -5z"/>
<path d="M7799 6628 c-5 -15 -4 -50 1 -53 3 -2 6 9 6 26 0 24 -3 37 -7 27z"/>
<path d="M7850 6626 c0 -2 7 -7 16 -10 8 -3 12 -2 9 4 -6 10 -25 14 -25 6z"/>
<path d="M1016 6573 c-6 -14 -5 -15 5 -6 7 7 10 15 7 18 -3 3 -9 -2 -12 -12z"/>
<path d="M7756 6582 c-3 -5 1 -9 9 -9 8 0 12 4 9 9 -3 4 -7 8 -9 8 -2 0 -6 -4
-9 -8z"/>
<path d="M7714 6559 c-4 -7 -3 -9 4 -5 5 3 13 0 15 -6 4 -9 6 -10 6 -1 1 17
-16 25 -25 12z"/>
<path d="M7726 6502 c-3 -5 1 -9 9 -9 8 0 12 4 9 9 -3 4 -7 8 -9 8 -2 0 -6 -4
-9 -8z"/>
<path d="M7625 6492 c-6 -7 7 -32 17 -32 5 0 7 4 3 9 -3 6 3 14 12 20 16 9 15
10 -5 8 -13 -1 -25 -3 -27 -5z"/>
<path d="M7644 6438 c-3 -4 5 -5 17 -3 30 6 36 14 9 12 -12 -1 -24 -5 -26 -9z"/>
<path d="M7629 6418 c7 -9 9 -23 5 -30 -6 -10 -4 -11 7 0 11 10 10 15 -6 30
-17 15 -18 15 -6 0z"/>
<path d="M915 6380 c-3 -5 -4 -10 0 -10 3 0 0 -10 -6 -22 -8 -17 -8 -20 0 -12
6 6 13 20 16 32 4 23 0 28 -10 12z"/>
<path d="M7595 6361 c-3 -5 -2 -12 3 -15 5 -3 9 1 9 9 0 17 -3 19 -12 6z"/>
<path d="M833 6325 c0 -8 4 -12 9 -9 5 3 6 10 3 15 -9 13 -12 11 -12 -6z"/>
<path d="M7570 6330 c-9 -6 -10 -10 -3 -10 6 0 15 5 18 10 8 12 4 12 -15 0z"/>
<path d="M7594 6306 c1 -8 5 -18 8 -22 4 -3 5 1 4 10 -1 8 -5 18 -8 22 -4 3
-5 -1 -4 -10z"/>
<path d="M865 6300 c-3 -6 1 -7 9 -4 18 7 21 14 7 14 -6 0 -13 -4 -16 -10z"/>
<path d="M7560 6279 c0 -5 5 -7 10 -4 6 3 10 8 10 11 0 2 -4 4 -10 4 -5 0 -10
-5 -10 -11z"/>
<path d="M815 6260 c-3 -5 -1 -10 4 -10 6 0 11 5 11 10 0 6 -2 10 -4 10 -3 0
-8 -4 -11 -10z"/>
<path d="M7570 6256 c0 -3 9 -10 19 -16 15 -7 22 -7 27 2 4 7 4 10 -1 6 -4 -4
-16 -3 -26 3 -11 5 -19 7 -19 5z"/>
<path d="M839 6233 c-13 -16 -12 -17 4 -4 16 13 21 21 13 21 -2 0 -10 -8 -17
-17z"/>
<path d="M7632 6172 c8 -9 14 -10 16 -3 2 6 9 8 15 4 7 -3 9 -2 4 2 -4 5 -16
9 -27 10 -16 1 -17 -1 -8 -13z"/>
<path d="M7635 6140 c3 -5 8 -10 11 -10 2 0 4 5 4 10 0 6 -5 10 -11 10 -5 0
-7 -4 -4 -10z"/>
<path d="M7690 6139 c0 -5 5 -7 10 -4 6 3 10 8 10 11 0 2 -4 4 -10 4 -5 0 -10
-5 -10 -11z"/>
<path d="M7670 6112 c9 -19 30 -23 30 -5 0 4 -3 3 -7 0 -3 -4 -12 1 -20 11
-13 15 -13 15 -3 -6z"/>
<path d="M753 6085 c0 -8 4 -12 9 -9 5 3 6 10 3 15 -9 13 -12 11 -12 -6z"/>
<path d="M7680 6076 c0 -2 7 -7 16 -10 8 -3 12 -2 9 4 -6 10 -25 14 -25 6z"/>
<path d="M670 5919 c0 -5 5 -7 10 -4 6 3 10 8 10 11 0 2 -4 4 -10 4 -5 0 -10
-5 -10 -11z"/>
<path d="M7793 5885 c0 -8 4 -15 9 -15 4 0 8 4 8 9 0 6 -4 12 -8 15 -5 3 -9
-1 -9 -9z"/>
<path d="M638 5863 c7 -3 16 -2 19 1 4 3 -2 6 -13 5 -11 0 -14 -3 -6 -6z"/>
<path d="M7811 5834 c0 -11 3 -14 6 -6 3 7 2 16 -1 19 -3 4 -6 -2 -5 -13z"/>
<path d="M573 5753 c0 -9 4 -10 14 -2 7 6 13 12 13 14 0 1 -6 2 -13 2 -8 0
-14 -6 -14 -14z"/>
<path d="M7844 5718 c-4 -7 -3 -8 5 -4 6 4 20 2 29 -6 15 -12 16 -11 3 5 -16
20 -27 22 -37 5z"/>
<path d="M7881 5634 c0 -11 3 -14 6 -6 3 7 2 16 -1 19 -3 4 -6 -2 -5 -13z"/>
<path d="M504 5598 c-3 -4 5 -5 17 -3 30 6 36 14 9 12 -12 -1 -24 -5 -26 -9z"/>
<path d="M7910 5606 c0 -2 7 -7 16 -10 8 -3 12 -2 9 4 -6 10 -25 14 -25 6z"/>
<path d="M7936 5547 c3 -10 9 -15 12 -12 3 3 0 11 -7 18 -10 9 -11 8 -5 -6z"/>
<path d="M456 5507 c3 -10 9 -15 12 -12 3 3 0 11 -7 18 -10 9 -11 8 -5 -6z"/>
<path d="M7948 5453 c7 -3 16 -2 19 1 4 3 -2 6 -13 5 -11 0 -14 -3 -6 -6z"/>
<path d="M456 5433 c-6 -14 -5 -15 5 -6 7 7 10 15 7 18 -3 3 -9 -2 -12 -12z"/>
<path d="M485 5439 c-4 -6 -5 -12 -2 -15 2 -3 7 2 10 11 7 17 1 20 -8 4z"/>
<path d="M457 5396 c-4 -10 -1 -13 8 -9 8 3 12 9 9 14 -7 12 -11 11 -17 -5z"/>
<path d="M7989 5397 c6 -8 7 -18 3 -22 -4 -5 -1 -5 6 -1 10 6 10 11 1 22 -6 8
-14 14 -16 14 -3 0 0 -6 6 -13z"/>
<path d="M8040 5406 c0 -2 8 -10 18 -17 15 -13 16 -12 3 4 -13 16 -21 21 -21
13z"/>
<path d="M406 5382 c-3 -5 1 -9 9 -9 8 0 12 4 9 9 -3 4 -7 8 -9 8 -2 0 -6 -4
-9 -8z"/>
<path d="M7990 5339 c0 -5 5 -7 10 -4 6 3 10 8 10 11 0 2 -4 4 -10 4 -5 0 -10
-5 -10 -11z"/>
<path d="M8030 5300 c0 -5 5 -10 11 -10 5 0 7 5 4 10 -3 6 -8 10 -11 10 -2 0
-4 -4 -4 -10z"/>
<path d="M365 5240 c-3 -6 1 -7 9 -4 18 7 21 14 7 14 -6 0 -13 -4 -16 -10z"/>
<path d="M8050 5180 c0 -5 5 -10 11 -10 5 0 7 5 4 10 -3 6 -8 10 -11 10 -2 0
-4 -4 -4 -10z"/>
<path d="M379 5153 c-12 -16 -12 -17 2 -6 9 7 20 9 24 5 5 -4 5 -1 1 6 -9 16
-11 15 -27 -5z"/>
<path d="M326 5138 c3 -5 10 -6 15 -3 13 9 11 12 -6 12 -8 0 -12 -4 -9 -9z"/>
<path d="M8070 5140 c0 -5 5 -10 11 -10 5 0 7 5 4 10 -3 6 -8 10 -11 10 -2 0
-4 -4 -4 -10z"/>
<path d="M8030 5126 c0 -2 7 -7 16 -10 8 -3 12 -2 9 4 -6 10 -25 14 -25 6z"/>
<path d="M8066 5102 c-3 -5 1 -9 9 -9 8 0 12 4 9 9 -3 4 -7 8 -9 8 -2 0 -6 -4
-9 -8z"/>
<path d="M8090 5061 c0 -6 4 -13 10 -16 6 -3 7 1 4 9 -7 18 -14 21 -14 7z"/>
<path d="M360 5040 c-9 -6 -10 -10 -3 -10 6 0 15 5 18 10 8 12 4 12 -15 0z"/>
<path d="M8065 5019 c-3 -4 2 -6 10 -5 21 3 28 13 10 13 -9 0 -18 -4 -20 -8z"/>
<path d="M370 5000 c-9 -6 -10 -10 -3 -10 6 0 15 5 18 10 8 12 4 12 -15 0z"/>
<path d="M8079 4998 c-8 -16 -3 -45 7 -45 10 0 11 4 3 13 -6 7 -8 18 -4 24 3
5 4 10 1 10 -3 0 -7 -1 -7 -2z"/>
<path d="M348 4973 c6 -2 10 -9 7 -14 -4 -5 1 -6 10 -2 13 5 14 7 3 14 -7 5
-17 8 -23 8 -5 0 -4 -3 3 -6z"/>
<path d="M335 4931 c-3 -5 -2 -12 3 -15 5 -3 9 1 9 9 0 17 -3 19 -12 6z"/>
<path d="M8106 4898 c3 -5 10 -6 15 -3 13 9 11 12 -6 12 -8 0 -12 -4 -9 -9z"/>
<path d="M295 4880 c3 -5 8 -10 11 -10 2 0 4 5 4 10 0 6 -5 10 -11 10 -5 0 -7
-4 -4 -10z"/>
<path d="M8133 4851 c0 -11 5 -18 9 -15 4 3 5 11 1 19 -7 21 -12 19 -10 -4z"/>
<path d="M276 4847 c3 -10 9 -15 12 -12 3 3 0 11 -7 18 -10 9 -11 8 -5 -6z"/>
<path d="M336 4817 c3 -10 9 -15 12 -12 3 3 0 11 -7 18 -10 9 -11 8 -5 -6z"/>
<path d="M8113 4815 c0 -8 4 -12 9 -9 5 3 6 10 3 15 -9 13 -12 11 -12 -6z"/>
<path d="M330 4759 c0 -5 5 -7 10 -4 6 3 10 8 10 11 0 2 -4 4 -10 4 -5 0 -10
-5 -10 -11z"/>
<path d="M8101 4714 c0 -11 3 -14 6 -6 3 7 2 16 -1 19 -3 4 -6 -2 -5 -13z"/>
<path d="M8152 4611 c7 -9 13 -18 15 -20 1 -2 1 5 0 16 0 11 -7 20 -14 20 -10
0 -10 -4 -1 -16z"/>
<path d="M310 4579 c0 -5 5 -7 10 -4 6 3 10 8 10 11 0 2 -4 4 -10 4 -5 0 -10
-5 -10 -11z"/>
<path d="M8130 4561 c0 -6 4 -13 10 -16 6 -3 7 1 4 9 -7 18 -14 21 -14 7z"/>
<path d="M8148 4491 c3 -9 1 -12 -5 -8 -13 8 -11 -18 1 -30 4 -4 7 -3 5 2 -4
16 12 45 21 40 5 -3 11 -2 14 3 2 4 -6 8 -19 8 -16 0 -21 -4 -17 -15z"/>
<path d="M275 4460 c-3 -5 -1 -10 4 -10 6 0 11 5 11 10 0 6 -2 10 -4 10 -3 0
-8 -4 -11 -10z"/>
<path d="M230 4420 c0 -5 5 -10 11 -10 5 0 7 5 4 10 -3 6 -8 10 -11 10 -2 0
-4 -4 -4 -10z"/>
<path d="M296 4415 c5 -11 2 -14 -12 -9 -11 4 -16 4 -13 0 4 -4 16 -8 28 -11
18 -3 20 -1 11 16 -13 23 -22 26 -14 4z"/>
<path d="M8170 4380 c0 -5 5 -10 11 -10 5 0 7 5 4 10 -3 6 -8 10 -11 10 -2 0
-4 -4 -4 -10z"/>
<path d="M275 4360 c-3 -6 1 -7 9 -4 18 7 21 14 7 14 -6 0 -13 -4 -16 -10z"/>
<path d="M300 4330 c6 -11 13 -20 16 -20 2 0 0 9 -6 20 -6 11 -13 20 -16 20
-2 0 0 -9 6 -20z"/>
<path d="M295 4285 c0 -13 3 -21 8 -18 4 2 7 10 7 18 0 8 -3 16 -7 18 -5 3 -8
-5 -8 -18z"/>
<path d="M273 4285 c0 -8 4 -12 9 -9 5 3 6 10 3 15 -9 13 -12 11 -12 -6z"/>
<path d="M8140 4275 c0 -8 2 -15 4 -15 2 0 6 7 10 15 3 8 1 15 -4 15 -6 0 -10
-7 -10 -15z"/>
<path d="M8174 4240 c0 -13 4 -16 10 -10 7 7 7 13 0 20 -6 6 -10 3 -10 -10z"/>
<path d="M256 4200 c8 -7 54 -7 54 0 0 4 -13 7 -29 6 -16 0 -27 -3 -25 -6z"/>
<path d="M293 4165 c0 -8 4 -12 9 -9 5 3 6 10 3 15 -9 13 -12 11 -12 -6z"/>
<path d="M290 4125 c0 -8 4 -15 10 -15 5 0 7 7 4 15 -4 8 -8 15 -10 15 -2 0
-4 -7 -4 -15z"/>
<path d="M8148 4112 c4 -11 1 -13 -9 -7 -8 5 -11 4 -6 0 14 -16 33 -13 33 5 0
9 -6 17 -12 17 -7 0 -10 -7 -6 -15z"/>
<path d="M255 4100 c3 -5 8 -10 11 -10 2 0 4 5 4 10 0 6 -5 10 -11 10 -5 0 -7
-4 -4 -10z"/>
<path d="M276 4075 c-3 -9 -11 -13 -17 -9 -8 5 -9 3 -4 -5 6 -10 11 -9 23 3 9
8 13 18 10 21 -3 3 -8 -1 -12 -10z"/>
<path d="M8125 4040 c-3 -6 1 -7 9 -4 18 7 21 14 7 14 -6 0 -13 -4 -16 -10z"/>
<path d="M8150 4009 l-25 -20 25 12 c14 7 29 12 33 11 5 -1 6 2 2 8 -8 13 -5
13 -35 -11z"/>
<path d="M297 4009 c7 -7 15 -10 18 -7 3 3 -2 9 -12 12 -14 6 -15 5 -6 -5z"/>
<path d="M8170 3979 c0 -5 5 -7 10 -4 6 3 10 8 10 11 0 2 -4 4 -10 4 -5 0 -10
-5 -10 -11z"/>
<path d="M8150 3950 c-9 -6 -10 -10 -3 -10 6 0 15 5 18 10 8 12 4 12 -15 0z"/>
<path d="M8133 3913 c0 -9 4 -10 14 -2 7 6 13 12 13 14 0 1 -6 2 -13 2 -8 0
-14 -6 -14 -14z"/>
<path d="M296 3912 c-2 -4 4 -8 14 -8 10 0 16 4 14 8 -3 4 -9 8 -14 8 -5 0
-11 -4 -14 -8z"/>
<path d="M290 3881 c0 -6 4 -13 10 -16 6 -3 7 1 4 9 -7 18 -14 21 -14 7z"/>
<path d="M316 3877 c3 -10 9 -15 12 -12 3 3 0 11 -7 18 -10 9 -11 8 -5 -6z"/>
<path d="M8120 3886 c0 -2 8 -10 18 -17 15 -13 16 -12 3 4 -13 16 -21 21 -21
13z"/>
<path d="M8110 3861 c0 -6 4 -13 10 -16 6 -3 7 1 4 9 -7 18 -14 21 -14 7z"/>
<path d="M296 3838 c3 -5 10 -6 15 -3 13 9 11 12 -6 12 -8 0 -12 -4 -9 -9z"/>
<path d="M8105 3820 c-3 -6 1 -7 9 -4 18 7 21 14 7 14 -6 0 -13 -4 -16 -10z"/>
<path d="M8140 3826 c0 -2 8 -10 18 -17 15 -13 16 -12 3 4 -13 16 -21 21 -21
13z"/>
<path d="M313 3805 c0 -8 4 -12 9 -9 4 3 8 9 8 15 0 5 -4 9 -8 9 -5 0 -9 -7
-9 -15z"/>
<path d="M8100 3776 c0 -2 7 -7 16 -10 8 -3 12 -2 9 4 -6 10 -25 14 -25 6z"/>
<path d="M314 3729 c-3 -6 -1 -16 6 -22 10 -9 11 -9 5 2 -4 8 -2 17 6 22 9 6
10 9 2 9 -6 0 -15 -5 -19 -11z"/>
<path d="M8096 3722 c-3 -5 1 -9 9 -9 8 0 12 4 9 9 -3 4 -7 8 -9 8 -2 0 -6 -4
-9 -8z"/>
<path d="M336 3693 c-6 -14 -5 -15 5 -6 7 7 10 15 7 18 -3 3 -9 -2 -12 -12z"/>
<path d="M315 3662 c4 -4 12 -7 18 -7 7 0 11 -12 10 -25 -2 -22 -2 -23 8 -7
12 21 1 39 -27 43 -9 1 -13 -1 -9 -4z"/>
<path d="M8130 3660 c0 -5 5 -10 11 -10 5 0 7 5 4 10 -3 6 -8 10 -11 10 -2 0
-4 -4 -4 -10z"/>
<path d="M315 3620 c-3 -5 -1 -10 4 -10 6 0 11 5 11 10 0 6 -2 10 -4 10 -3 0
-8 -4 -11 -10z"/>
<path d="M8088 3603 c6 -2 9 -10 6 -15 -4 -7 -2 -8 5 -4 13 9 5 26 -12 25 -9
0 -8 -2 1 -6z"/>
<path d="M8114 3569 c-3 -6 -2 -15 3 -20 5 -5 9 -1 9 11 0 23 -2 24 -12 9z"/>
<path d="M336 3558 c3 -4 9 -8 15 -8 5 0 9 4 9 8 0 5 -7 9 -15 9 -8 0 -12 -4
-9 -9z"/>
<path d="M335 3528 c8 -19 42 -20 42 -1 0 8 -4 10 -12 3 -7 -6 -16 -5 -24 3
-10 9 -11 8 -6 -5z"/>
<path d="M361 3493 c-1 -6 4 -15 10 -19 8 -4 7 -9 -2 -16 -12 -8 -12 -9 0 -6
8 2 15 12 17 21 1 9 -1 15 -6 12 -5 -3 -11 1 -13 7 -4 9 -6 10 -6 1z"/>
<path d="M8073 3473 c-3 -7 -10 -10 -17 -6 -6 3 -7 2 -3 -2 14 -16 36 -14 30
3 -4 10 -2 13 5 8 6 -3 13 -3 16 2 3 5 -2 9 -10 9 -9 0 -18 -6 -21 -14z"/>
<path d="M336 3442 c-3 -5 1 -9 9 -9 8 0 12 4 9 9 -3 4 -7 8 -9 8 -2 0 -6 -4
-9 -8z"/>
<path d="M357 3412 c-14 -15 -14 -19 -3 -19 8 0 14 5 13 11 -1 6 4 10 11 8 8
-1 11 2 7 8 -8 13 -9 13 -28 -8z"/>
<path d="M8093 3375 c0 -8 4 -12 9 -9 5 3 6 10 3 15 -9 13 -12 11 -12 -6z"/>
<path d="M388 3373 c6 -2 9 -10 6 -15 -4 -7 -2 -8 4 -4 18 11 14 26 -5 25 -11
0 -13 -3 -5 -6z"/>
<path d="M8035 3361 c-3 -5 -2 -12 3 -15 5 -3 9 1 9 9 0 17 -3 19 -12 6z"/>
<path d="M8056 3333 c-6 -14 -5 -15 5 -6 7 7 10 15 7 18 -3 3 -9 -2 -12 -12z"/>
<path d="M376 3327 c3 -10 9 -15 12 -12 3 3 0 11 -7 18 -10 9 -11 8 -5 -6z"/>
<path d="M412 3289 c-1 -16 -1 -29 2 -29 7 0 13 50 7 55 -4 2 -8 -10 -9 -26z"/>
<path d="M8030 3269 c0 -5 -6 -7 -12 -3 -7 4 -9 3 -5 -1 13 -15 36 -14 30 1
-6 17 -13 18 -13 3z"/>
<path d="M375 3219 c-3 -4 2 -6 10 -5 21 3 28 13 10 13 -9 0 -18 -4 -20 -8z"/>
<path d="M8027 3209 c4 -13 8 -18 11 -10 2 7 -1 18 -6 23 -8 8 -9 4 -5 -13z"/>
<path d="M409 3203 c-13 -16 -12 -17 4 -4 9 7 17 15 17 17 0 8 -8 3 -21 -13z"/>
<path d="M7995 3180 c-3 -5 -1 -10 4 -10 6 0 11 5 11 10 0 6 -2 10 -4 10 -3 0
-8 -4 -11 -10z"/>
<path d="M7977 3149 c7 -7 15 -10 18 -7 3 3 -2 9 -12 12 -14 6 -15 5 -6 -5z"/>
<path d="M426 3138 c3 -5 10 -6 15 -3 13 9 11 12 -6 12 -8 0 -12 -4 -9 -9z"/>
<path d="M457 3135 c-6 -15 10 -32 20 -21 4 3 1 6 -5 6 -6 0 -9 7 -6 15 4 8 4
15 1 15 -3 0 -7 -7 -10 -15z"/>
<path d="M410 3099 c0 -5 5 -7 10 -4 6 3 10 8 10 11 0 2 -4 4 -10 4 -5 0 -10
-5 -10 -11z"/>
<path d="M7957 3095 c-4 -8 -3 -16 1 -19 4 -3 9 4 9 15 2 23 -3 25 -10 4z"/>
<path d="M439 3088 c-7 -23 -4 -35 7 -35 9 0 11 4 4 12 -5 7 -7 15 -3 18 3 4
3 7 0 7 -4 0 -7 -1 -8 -2z"/>
<path d="M475 3050 c3 -5 8 -10 11 -10 2 0 4 5 4 10 0 6 -5 10 -11 10 -5 0 -7
-4 -4 -10z"/>
<path d="M7935 3030 c-3 -6 1 -7 9 -4 18 7 21 14 7 14 -6 0 -13 -4 -16 -10z"/>
<path d="M7958 3016 c-19 -14 -23 -26 -10 -26 4 0 13 9 20 20 14 23 13 24 -10
6z"/>
<path d="M7944 2966 c-10 -8 -17 -16 -14 -19 3 -2 14 4 24 14 23 22 18 25 -10
5z"/>
<path d="M7907 2936 c-3 -8 -2 -18 3 -21 13 -8 20 9 11 24 -6 10 -10 9 -14 -3z"/>
<path d="M7960 2940 c-9 -6 -10 -10 -3 -10 6 0 15 5 18 10 8 12 4 12 -15 0z"/>
<path d="M486 2921 c8 -9 44 -11 44 -3 0 4 -11 8 -25 8 -13 0 -22 -2 -19 -5z"/>
<path d="M535 2900 c-3 -5 -1 -10 4 -10 6 0 11 5 11 10 0 6 -2 10 -4 10 -3 0
-8 -4 -11 -10z"/>
<path d="M7885 2891 c-3 -5 0 -13 6 -17 7 -4 9 -3 5 4 -3 5 0 13 6 15 9 4 10
6 1 6 -6 1 -14 -3 -18 -8z"/>
<path d="M495 2880 c3 -5 8 -10 11 -10 2 0 4 5 4 10 0 6 -5 10 -11 10 -5 0 -7
-4 -4 -10z"/>
<path d="M7920 2880 c-9 -6 -10 -10 -3 -10 6 0 15 5 18 10 8 12 4 12 -15 0z"/>
<path d="M7877 2829 c7 -7 15 -10 18 -7 3 3 -2 9 -12 12 -14 6 -15 5 -6 -5z"/>
<path d="M541 2820 c-9 -5 -4 -7 13 -7 29 0 32 2 13 10 -8 3 -20 2 -26 -3z"/>
<path d="M7934 2816 c1 -8 5 -18 8 -22 4 -3 5 1 4 10 -1 8 -5 18 -8 22 -4 3
-5 -1 -4 -10z"/>
<path d="M7870 2796 c7 -7 13 -7 20 0 6 6 3 10 -10 10 -13 0 -16 -4 -10 -10z"/>
<path d="M7850 2770 c-11 -7 -11 -10 -2 -10 8 0 10 -5 6 -12 -4 -7 -3 -9 1 -5
7 6 17 37 12 37 -1 0 -9 -5 -17 -10z"/>
<path d="M7890 2740 c0 -5 5 -10 11 -10 5 0 7 5 4 10 -3 6 -8 10 -11 10 -2 0
-4 -4 -4 -10z"/>
<path d="M554 2720 c0 -13 4 -16 10 -10 7 7 7 13 0 20 -6 6 -10 3 -10 -10z"/>
<path d="M608 2723 c6 -2 9 -10 6 -15 -4 -7 -2 -8 5 -4 13 9 5 26 -12 25 -9 0
-8 -2 1 -6z"/>
<path d="M7844 2722 c4 -3 14 -7 22 -8 9 -1 13 0 10 4 -4 3 -14 7 -22 8 -9 1
-13 0 -10 -4z"/>
<path d="M595 2675 c0 -22 17 -27 32 -10 4 4 2 5 -4 1 -8 -4 -13 -1 -13 8 0 8
-3 17 -7 19 -5 3 -8 -5 -8 -18z"/>
<path d="M7810 2691 c0 -6 4 -13 10 -16 6 -3 7 1 4 9 -7 18 -14 21 -14 7z"/>
<path d="M7795 2660 c3 -5 8 -10 11 -10 2 0 4 5 4 10 0 6 -5 10 -11 10 -5 0
-7 -4 -4 -10z"/>
<path d="M630 2610 c-9 -16 -8 -18 5 -14 8 3 13 10 10 14 -3 5 1 11 7 13 10 4
10 6 1 6 -7 1 -17 -8 -23 -19z"/>
<path d="M7776 2582 c-2 -4 0 -14 6 -22 8 -12 9 -11 4 4 -5 14 -2 17 9 12 9
-3 13 -2 10 4 -7 12 -22 13 -29 2z"/>
<path d="M7756 2543 c-3 -4 -6 -15 -6 -25 0 -13 -4 -17 -12 -12 -7 4 -9 3 -5
-1 17 -19 34 -13 29 11 -3 19 -1 23 12 18 9 -3 16 -4 16 -1 0 8 -28 16 -34 10z"/>
<path d="M666 2498 c3 -5 10 -6 15 -3 13 9 11 12 -6 12 -8 0 -12 -4 -9 -9z"/>
<path d="M696 2494 c-9 -24 -2 -26 12 -4 7 11 8 20 3 20 -5 0 -12 -7 -15 -16z"/>
<path d="M7715 2460 c6 -9 4 -12 -6 -8 -10 4 -15 -1 -16 -13 -2 -23 13 -34 23
-18 4 8 3 9 -4 5 -18 -11 -14 5 5 19 13 9 13 14 3 20 -9 6 -11 4 -5 -5z"/>
<path d="M696 2447 c3 -10 9 -15 12 -12 3 3 0 11 -7 18 -10 9 -11 8 -5 -6z"/>
<path d="M725 2440 c3 -5 8 -10 11 -10 2 0 4 5 4 10 0 6 -5 10 -11 10 -5 0 -7
-4 -4 -10z"/>
<path d="M730 2414 c0 -2 9 -8 20 -14 11 -6 20 -7 20 -2 0 6 -9 12 -20 15 -11
3 -20 3 -20 1z"/>
<path d="M7673 2392 c-1 -22 0 -24 9 -8 6 10 6 22 2 26 -5 5 -10 -3 -11 -18z"/>
<path d="M7719 2393 c-13 -16 -12 -17 4 -4 9 7 17 15 17 17 0 8 -8 3 -21 -13z"/>
<path d="M713 2365 c0 -8 4 -12 9 -9 5 3 6 10 3 15 -9 13 -12 11 -12 -6z"/>
<path d="M7693 2365 c0 -8 4 -12 9 -9 5 3 6 10 3 15 -9 13 -12 11 -12 -6z"/>
<path d="M7646 2361 c-3 -5 1 -11 9 -14 9 -4 12 -1 8 9 -6 16 -10 17 -17 5z"/>
<path d="M776 2337 c5 -14 2 -16 -12 -11 -16 5 -16 4 -4 -5 20 -14 39 4 21 22
-10 10 -11 9 -5 -6z"/>
<path d="M7696 2327 c3 -10 9 -15 12 -12 3 3 0 11 -7 18 -10 9 -11 8 -5 -6z"/>
<path d="M794 2285 c2 -35 11 -39 12 -4 1 16 -2 29 -6 29 -4 0 -6 -11 -6 -25z"/>
<path d="M7626 2283 c-6 -14 -5 -15 5 -6 7 7 10 15 7 18 -3 3 -9 -2 -12 -12z"/>
<path d="M823 2268 c-2 -18 0 -20 7 -8 12 18 13 30 2 30 -4 0 -9 -10 -9 -22z"/>
<path d="M7595 2270 c-3 -5 -1 -10 4 -10 6 0 11 5 11 10 0 6 -2 10 -4 10 -3 0
-8 -4 -11 -10z"/>
<path d="M7636 2238 c3 -5 10 -6 15 -3 13 9 11 12 -6 12 -8 0 -12 -4 -9 -9z"/>
<path d="M816 2231 c-4 -5 3 -7 14 -4 23 6 26 13 6 13 -8 0 -17 -4 -20 -9z"/>
<path d="M770 2219 c0 -5 5 -7 10 -4 6 3 10 8 10 11 0 2 -4 4 -10 4 -5 0 -10
-5 -10 -11z"/>
<path d="M7598 2223 c7 -3 16 -2 19 1 4 3 -2 6 -13 5 -11 0 -14 -3 -6 -6z"/>
<path d="M837 2199 c7 -7 15 -10 18 -7 3 3 -2 9 -12 12 -14 6 -15 5 -6 -5z"/>
<path d="M7575 2199 c-4 -6 -4 -13 -1 -16 3 -4 6 -1 6 6 0 7 5 9 10 6 6 -3 10
-1 10 4 0 14 -17 14 -25 0z"/>
<path d="M873 2172 c0 -12 5 -22 9 -22 11 0 10 12 -2 30 -7 12 -9 10 -7 -8z"/>
<path d="M7535 2171 c-3 -5 -2 -12 3 -15 5 -3 9 1 9 9 0 17 -3 19 -12 6z"/>
<path d="M845 2160 c3 -5 8 -10 11 -10 2 0 4 5 4 10 0 6 -5 10 -11 10 -5 0 -7
-4 -4 -10z"/>
<path d="M900 2160 c0 -5 5 -10 11 -10 5 0 7 5 4 10 -3 6 -8 10 -11 10 -2 0
-4 -4 -4 -10z"/>
<path d="M836 2127 c3 -10 9 -15 12 -12 3 3 0 11 -7 18 -10 9 -11 8 -5 -6z"/>
<path d="M887 2126 c-6 -16 11 -26 31 -19 6 3 12 9 12 15 0 6 -7 4 -17 -3 -15
-12 -16 -12 -10 4 3 9 2 17 -2 17 -5 0 -11 -6 -14 -14z"/>
<path d="M7573 2095 c0 -8 4 -12 9 -9 5 3 6 10 3 15 -9 13 -12 11 -12 -6z"/>
<path d="M770 2085 c0 -5 5 -17 10 -25 5 -8 10 -10 10 -5 0 6 -5 17 -10 25 -5
8 -10 11 -10 5z"/>
<path d="M835 2070 c-3 -5 -1 -10 4 -10 6 0 11 5 11 10 0 6 -2 10 -4 10 -3 0
-8 -4 -11 -10z"/>
<path d="M866 2055 c-11 -8 -15 -15 -9 -15 6 0 16 7 23 15 16 19 11 19 -14 0z"/>
<path d="M7459 2068 c-11 -40 1 -73 17 -47 4 8 3 9 -4 5 -7 -4 -12 -3 -12 3 0
5 6 12 13 14 9 4 9 6 -1 6 -7 1 -10 6 -7 11 3 6 4 10 1 10 -3 0 -6 -1 -7 -2z"/>
<path d="M7495 2060 c-4 -6 -1 -9 7 -8 7 2 12 -3 10 -10 -1 -8 2 -11 8 -7 8 5
7 11 -1 21 -14 17 -16 17 -24 4z"/>
<path d="M795 2022 c3 -3 -3 -14 -12 -25 -18 -19 -17 -19 4 -6 27 16 36 36 17
36 -8 0 -12 -3 -9 -5z"/>
<path d="M7436 1995 c-9 -26 -7 -32 5 -12 6 10 9 21 6 23 -2 3 -7 -2 -11 -11z"/>
<path d="M7404 1972 c3 -5 0 -13 -6 -15 -9 -4 -10 -6 -1 -6 17 -1 25 16 12 25
-7 4 -9 3 -5 -4z"/>
<path d="M7413 1935 c-3 -9 -3 -18 -1 -21 3 -3 8 4 11 16 6 23 -1 27 -10 5z"/>
<path d="M7446 1938 c3 -5 10 -6 15 -3 13 9 11 12 -6 12 -8 0 -12 -4 -9 -9z"/>
<path d="M7381 1924 c0 -11 3 -14 6 -6 3 7 2 16 -1 19 -3 4 -6 -2 -5 -13z"/>
<path d="M656 1895 c-9 -26 -7 -32 5 -12 6 10 9 21 6 23 -2 3 -7 -2 -11 -11z"/>
<path d="M7350 1869 c0 -5 -5 -7 -12 -3 -7 4 -8 3 -4 -5 6 -9 11 -9 22 0 17
14 18 19 4 19 -5 0 -10 -5 -10 -11z"/>
<path d="M7310 1840 c-13 -8 -12 -10 3 -10 9 0 17 5 17 10 0 12 -1 12 -20 0z"/>
<path d="M7370 1839 c0 -5 5 -7 10 -4 6 3 10 8 10 11 0 2 -4 4 -10 4 -5 0 -10
-5 -10 -11z"/>
<path d="M7287 1813 c-11 -11 -8 -21 9 -27 14 -5 15 -4 5 8 -9 11 -9 15 1 19
7 3 8 6 2 6 -6 1 -14 -2 -17 -6z"/>
<path d="M7268 1763 c7 -3 16 -2 19 1 4 3 -2 6 -13 5 -11 0 -14 -3 -6 -6z"/>
<path d="M7187 1689 c7 -7 15 -10 18 -7 3 3 -2 9 -12 12 -14 6 -15 5 -6 -5z"/>
<path d="M7246 1678 c3 -5 10 -6 15 -3 13 9 11 12 -6 12 -8 0 -12 -4 -9 -9z"/>
<path d="M7171 1656 c-9 -10 -7 -17 6 -27 16 -12 17 -12 6 2 -17 21 -5 33 16
16 14 -11 14 -10 2 6 -16 21 -16 20 -30 3z"/>
<path d="M494 1646 c1 -8 5 -18 8 -22 4 -3 5 1 4 10 -1 8 -5 18 -8 22 -4 3 -5
-1 -4 -10z"/>
<path d="M7130 1631 c0 -5 5 -13 10 -16 6 -3 10 -2 10 4 0 5 -4 13 -10 16 -5
3 -10 2 -10 -4z"/>
<path d="M496 1602 c-3 -5 1 -9 9 -9 8 0 12 4 9 9 -3 4 -7 8 -9 8 -2 0 -6 -4
-9 -8z"/>
<path d="M7101 1594 c0 -11 3 -14 6 -6 3 7 2 16 -1 19 -3 4 -6 -2 -5 -13z"/>
<path d="M7071 1576 c-9 -11 -9 -16 0 -22 7 -4 9 -3 5 4 -3 5 0 12 6 15 7 2
10 7 7 11 -3 4 -12 0 -18 -8z"/>
<path d="M7096 1553 c-6 -14 -5 -15 5 -6 7 7 10 15 7 18 -3 3 -9 -2 -12 -12z"/>
<path d="M7070 1536 c0 -2 8 -10 18 -17 15 -13 16 -12 3 4 -13 16 -21 21 -21
13z"/>
<path d="M514 1495 c0 -13 3 -22 7 -19 8 4 6 30 -2 38 -3 3 -5 -5 -5 -19z"/>
<path d="M7015 1509 c-4 -6 -5 -12 -2 -15 2 -3 7 2 10 11 7 17 1 20 -8 4z"/>
<path d="M7030 1490 c0 -5 5 -10 11 -10 5 0 7 5 4 10 -3 6 -8 10 -11 10 -2 0
-4 -4 -4 -10z"/>
<path d="M6980 1475 c-7 -9 -10 -18 -7 -21 3 -3 10 4 17 15 13 25 8 27 -10 6z"/>
<path d="M6999 1463 c-5 -29 -5 -53 -1 -48 7 6 12 55 6 55 -2 0 -5 -3 -5 -7z"/>
<path d="M6960 1430 c6 -11 13 -20 16 -20 2 0 0 9 -6 20 -6 11 -13 20 -16 20
-2 0 0 -9 6 -20z"/>
<path d="M500 1426 c0 -2 8 -10 18 -17 15 -13 16 -12 3 4 -13 16 -21 21 -21
13z"/>
<path d="M6954 1402 c3 -5 0 -13 -6 -15 -9 -4 -10 -6 -1 -6 17 -1 25 16 12 25
-7 4 -9 3 -5 -4z"/>
<path d="M475 1380 c-3 -5 -1 -10 4 -10 6 0 11 5 11 10 0 6 -2 10 -4 10 -3 0
-8 -4 -11 -10z"/>
<path d="M6875 1370 c-3 -5 -1 -10 4 -10 6 0 11 5 11 10 0 6 -2 10 -4 10 -3 0
-8 -4 -11 -10z"/>
<path d="M513 1363 c4 -3 2 -12 -5 -20 -8 -11 -7 -12 6 -7 18 7 22 34 4 34 -6
0 -8 -3 -5 -7z"/>
<path d="M6910 1356 c7 -7 13 -7 20 0 6 6 3 10 -10 10 -13 0 -16 -4 -10 -10z"/>
<path d="M6853 1333 c-3 -6 0 -20 6 -30 9 -15 10 -13 5 10 -5 22 -3 26 9 21 8
-3 17 -2 20 3 3 5 -4 9 -15 9 -11 0 -22 -6 -25 -13z"/>
<path d="M6910 1326 c0 -2 7 -7 16 -10 8 -3 12 -2 9 4 -6 10 -25 14 -25 6z"/>
<path d="M6890 1299 c0 -5 5 -7 10 -4 6 3 10 8 10 11 0 2 -4 4 -10 4 -5 0 -10
-5 -10 -11z"/>
<path d="M6750 1251 c0 -7 -4 -9 -10 -6 -6 4 -7 -1 -3 -11 6 -15 7 -15 15 1 6
9 7 19 4 22 -3 4 -6 1 -6 -6z"/>
<path d="M6795 1249 c-4 -6 -5 -12 -2 -15 2 -3 7 2 10 11 7 17 1 20 -8 4z"/>
<path d="M6705 1221 c-6 -11 9 -23 19 -14 9 9 7 23 -3 23 -6 0 -12 -4 -16 -9z"/>
<path d="M6776 1207 c3 -10 9 -15 12 -12 3 3 0 11 -7 18 -10 9 -11 8 -5 -6z"/>
<path d="M6663 1191 c-20 -17 -21 -20 -6 -26 10 -3 14 -3 10 1 -4 4 0 16 10
26 21 23 14 23 -14 -1z"/>
<path d="M513 1165 c0 -8 4 -15 9 -15 4 0 8 4 8 9 0 6 -4 12 -8 15 -5 3 -9 -1
-9 -9z"/>
<path d="M6626 1152 c-2 -4 4 -8 14 -8 10 0 16 4 14 8 -3 4 -9 8 -14 8 -5 0
-11 -4 -14 -8z"/>
<path d="M6650 1119 c0 -5 5 -7 10 -4 6 3 10 8 10 11 0 2 -4 4 -10 4 -5 0 -10
-5 -10 -11z"/>
<path d="M6627 1099 c7 -7 15 -10 18 -7 3 3 -2 9 -12 12 -14 6 -15 5 -6 -5z"/>
<path d="M517 1083 c-2 -5 -3 -17 -1 -28 1 -10 -2 -25 -8 -32 -8 -10 -7 -12 5
-7 11 4 15 17 14 40 -2 36 -3 39 -10 27z"/>
<path d="M6525 1080 c3 -5 8 -10 11 -10 2 0 4 5 4 10 0 6 -5 10 -11 10 -5 0
-7 -4 -4 -10z"/>
<path d="M6546 1063 c-6 -14 -5 -15 5 -6 7 7 10 15 7 18 -3 3 -9 -2 -12 -12z"/>
<path d="M475 1060 c-3 -5 -1 -10 4 -10 6 0 11 5 11 10 0 6 -2 10 -4 10 -3 0
-8 -4 -11 -10z"/>
<path d="M6575 1049 c-4 -6 -5 -12 -2 -15 2 -3 7 2 10 11 7 17 1 20 -8 4z"/>
<path d="M6470 1043 c0 -5 5 -15 10 -23 7 -12 9 -10 7 8 -1 19 -17 33 -17 15z"/>
<path d="M6414 982 c3 -5 0 -13 -6 -15 -9 -4 -10 -6 -1 -6 17 -1 25 16 12 25
-7 4 -9 3 -5 -4z"/>
<path d="M6450 976 c0 -2 8 -10 18 -17 15 -13 16 -12 3 4 -13 16 -21 21 -21
13z"/>
<path d="M531 954 c0 -11 3 -14 6 -6 3 7 2 16 -1 19 -3 4 -6 -2 -5 -13z"/>
<path d="M2084 948 c-5 -7 -9 -28 -10 -46 -1 -20 2 -29 6 -22 6 10 9 10 13 -1
2 -8 2 -3 0 11 l-5 25 25 -23 c20 -19 28 -21 48 -12 23 10 22 10 -5 5 -26 -6
-28 -4 -17 9 7 9 18 13 25 9 6 -3 0 6 -13 20 -14 15 -27 25 -29 22 -3 -3 -11
0 -18 6 -9 7 -15 6 -20 -3z m36 -13 c0 4 7 2 15 -5 11 -9 12 -15 2 -25 -10
-11 -15 -11 -28 1 -9 8 -18 11 -22 8 -4 -5 -4 4 2 35 1 2 8 -2 16 -9 8 -7 15
-9 15 -5z"/>
<path d="M531 914 c0 -11 3 -14 6 -6 3 7 2 16 -1 19 -3 4 -6 -2 -5 -13z"/>
<path d="M6307 908 c-5 -21 -5 -21 7 -6 10 14 15 15 26 5 12 -10 12 -9 1 6
-18 23 -28 22 -34 -5z"/>
<path d="M6246 877 c3 -10 9 -15 12 -12 3 3 0 11 -7 18 -10 9 -11 8 -5 -6z"/>
<path d="M496 867 c3 -10 9 -15 12 -12 3 3 0 11 -7 18 -10 9 -11 8 -5 -6z"/>
<path d="M2055 863 c3 -3 -3 -12 -13 -20 -13 -10 -14 -13 -2 -11 8 2 14 -3 12
-10 -1 -8 1 -11 6 -8 10 6 9 43 -1 51 -4 3 -5 2 -2 -2z"/>
<path d="M6190 851 c0 -6 4 -13 10 -16 6 -3 7 1 4 9 -7 18 -14 21 -14 7z"/>
<path d="M1990 841 c0 -5 7 -15 17 -22 15 -13 15 -12 4 9 -12 23 -21 28 -21
13z"/>
<path d="M2210 838 c0 -6 3 -8 7 -5 3 4 12 2 20 -4 8 -7 13 -8 13 -1 0 5 -7
13 -16 16 -22 8 -24 8 -24 -6z"/>
<path d="M2321 815 c13 -13 28 -25 33 -25 5 0 -3 11 -18 25 -35 32 -45 32 -15
0z"/>
<path d="M1970 820 c0 -5 5 -10 11 -10 5 0 7 5 4 10 -3 6 -8 10 -11 10 -2 0
-4 -4 -4 -10z"/>
<path d="M2270 820 c-12 -7 -10 -9 7 -7 12 0 19 5 17 9 -6 10 -6 10 -24 -2z"/>
<path d="M1953 794 c0 -17 2 -22 7 -13 5 6 6 18 3 26 -8 19 -10 16 -10 -13z"/>
<path d="M6094 812 c3 -5 0 -13 -6 -15 -9 -4 -10 -6 -1 -6 17 -1 25 16 12 25
-7 4 -9 3 -5 -4z"/>
<path d="M2215 800 c3 -5 8 -10 11 -10 2 0 4 5 4 10 0 6 -5 10 -11 10 -5 0 -7
-4 -4 -10z"/>
<path d="M2305 799 c-4 -6 -5 -12 -2 -15 2 -3 7 2 10 11 7 17 1 20 -8 4z"/>
<path d="M6225 800 c-3 -6 1 -7 9 -4 18 7 21 14 7 14 -6 0 -13 -4 -16 -10z"/>
<path d="M535 780 c3 -5 8 -10 11 -10 2 0 4 5 4 10 0 6 -5 10 -11 10 -5 0 -7
-4 -4 -10z"/>
<path d="M2380 780 c0 -5 7 -7 15 -4 8 4 15 8 15 10 0 2 -7 4 -15 4 -8 0 -15
-4 -15 -10z"/>
<path d="M591 764 c0 -11 3 -14 6 -6 3 7 2 16 -1 19 -3 4 -6 -2 -5 -13z"/>
<path d="M2360 771 c0 -6 4 -13 10 -16 6 -3 7 1 4 9 -7 18 -14 21 -14 7z"/>
<path d="M1920 766 c0 -2 7 -9 15 -16 13 -11 14 -10 9 4 -5 14 -24 23 -24 12z"/>
<path d="M2395 760 c-4 -6 -3 -10 2 -9 21 4 34 -2 27 -13 -4 -6 -3 -8 4 -4 6
3 15 -2 21 -11 6 -10 11 -13 11 -6 0 13 -39 53 -51 53 -4 0 -11 -5 -14 -10z"/>
<path d="M1890 751 c0 -7 -5 -9 -12 -5 -7 5 -8 3 -3 -5 5 -9 10 -10 18 -2 6 6
8 14 4 18 -4 3 -7 1 -7 -6z"/>
<path d="M2333 745 c0 -8 4 -12 9 -9 5 3 6 10 3 15 -9 13 -12 11 -12 -6z"/>
<path d="M6093 745 c0 -8 4 -12 9 -9 5 3 6 10 3 15 -9 13 -12 11 -12 -6z"/>
<path d="M2470 740 c0 -5 5 -10 11 -10 5 0 7 5 4 10 -3 6 -8 10 -11 10 -2 0
-4 -4 -4 -10z"/>
<path d="M5984 736 c-10 -8 -16 -18 -11 -22 4 -4 7 -2 7 4 0 7 7 12 15 12 8 0
15 5 15 10 0 13 -3 13 -26 -4z"/>
<path d="M6060 740 c-9 -6 -10 -10 -3 -10 6 0 15 5 18 10 8 12 4 12 -15 0z"/>
<path d="M2370 737 c0 -2 6 -10 14 -16 11 -9 16 -9 22 1 4 7 4 10 -1 6 -4 -4
-14 -3 -22 3 -7 6 -13 9 -13 6z"/>
<path d="M1900 726 c3 -3 18 -7 34 -10 16 -3 25 -2 22 1 -4 4 -19 9 -34 11
-15 2 -24 1 -22 -2z"/>
<path d="M2495 719 c-4 -6 -5 -12 -2 -15 2 -3 7 2 10 11 7 17 1 20 -8 4z"/>
<path d="M5916 715 c-9 -26 -7 -32 5 -12 6 10 9 21 6 23 -2 3 -7 -2 -11 -11z"/>
<path d="M1880 711 c0 -6 4 -13 10 -16 6 -3 7 1 4 9 -7 18 -14 21 -14 7z"/>
<path d="M590 698 c0 -4 4 -8 9 -8 6 0 12 4 15 8 3 5 -1 9 -9 9 -8 0 -15 -4
-15 -9z"/>
<path d="M2427 699 c7 -7 15 -10 18 -7 3 3 -2 9 -12 12 -14 6 -15 5 -6 -5z"/>
<path d="M2510 700 c0 -5 7 -7 15 -4 8 4 15 8 15 10 0 2 -7 4 -15 4 -8 0 -15
-4 -15 -10z"/>
<path d="M5933 694 c-3 -8 -3 -18 1 -21 3 -4 6 1 6 10 0 10 5 14 15 11 8 -4
15 -4 15 -1 0 14 -31 15 -37 1z"/>
<path d="M2389 683 c-13 -16 -12 -17 4 -4 16 13 21 21 13 21 -2 0 -10 -8 -17
-17z"/>
<path d="M2476 687 c3 -10 9 -15 12 -12 3 3 0 11 -7 18 -10 9 -11 8 -5 -6z"/>
<path d="M2534 684 c-18 -14 -18 -15 4 -4 12 6 22 13 22 15 0 8 -5 6 -26 -11z"/>
<path d="M1850 682 c0 -4 10 -9 22 -9 18 -2 20 0 8 7 -18 12 -30 13 -30 2z"/>
<path d="M5880 681 c0 -5 7 -11 14 -14 10 -4 13 -1 9 9 -6 15 -23 19 -23 5z"/>
<path d="M615 660 c3 -5 8 -10 11 -10 2 0 4 5 4 10 0 6 -5 10 -11 10 -5 0 -7
-4 -4 -10z"/>
<path d="M2635 661 c-3 -6 5 -15 17 -21 21 -10 21 -10 6 3 -10 8 -15 17 -11
20 3 4 4 7 0 7 -3 0 -8 -4 -12 -9z"/>
<path d="M1790 650 c-8 -5 -10 -10 -5 -10 6 0 17 5 25 10 8 5 11 10 5 10 -5 0
-17 -5 -25 -10z"/>
<path d="M2610 645 c0 -8 4 -15 10 -15 5 0 7 7 4 15 -4 8 -8 15 -10 15 -2 0
-4 -7 -4 -15z"/>
<path d="M5771 657 c2 -2 11 -8 20 -15 12 -9 16 -9 16 1 0 7 -9 14 -20 14 -11
1 -18 1 -16 0z"/>
<path d="M720 640 c-9 -6 -10 -10 -3 -10 6 0 15 5 18 10 8 12 4 12 -15 0z"/>
<path d="M2687 639 c7 -7 15 -10 18 -7 3 3 -2 9 -12 12 -14 6 -15 5 -6 -5z"/>
<path d="M1835 631 c-3 -5 -2 -12 3 -15 5 -3 9 1 9 9 0 17 -3 19 -12 6z"/>
<path d="M2576 627 c3 -10 9 -15 12 -12 3 3 0 11 -7 18 -10 9 -11 8 -5 -6z"/>
<path d="M5734 629 c-2 -4 0 -10 5 -13 5 -4 13 -1 16 5 4 5 14 8 22 5 8 -3 11
-2 8 3 -6 11 -44 10 -51 0z"/>
<path d="M650 619 c0 -5 5 -7 10 -4 6 3 10 8 10 11 0 2 -4 4 -10 4 -5 0 -10
-5 -10 -11z"/>
<path d="M739 628 c-5 -16 -4 -50 1 -53 4 -3 7 6 6 18 -1 12 3 25 9 29 6 5 6
8 -2 8 -7 0 -13 -1 -14 -2z"/>
<path d="M1774 619 c-3 -6 -2 -15 4 -21 6 -6 12 -6 17 3 6 8 4 10 -5 4 -10 -6
-12 -4 -7 8 7 19 2 23 -9 6z"/>
<path d="M5825 619 c-3 -4 2 -6 10 -5 21 3 28 13 10 13 -9 0 -18 -4 -20 -8z"/>
<path d="M787 591 c-4 -17 -3 -21 5 -13 5 5 8 16 6 23 -3 8 -7 3 -11 -10z"/>
<path d="M1746 595 c4 -8 11 -15 16 -15 6 0 5 6 -2 15 -7 8 -14 15 -16 15 -2
0 -1 -7 2 -15z"/>
<path d="M2793 595 c0 -8 6 -16 14 -19 11 -4 11 -1 3 14 -13 24 -17 25 -17 5z"/>
<path d="M5702 602 c-8 -6 -2 -9 18 -9 20 0 26 3 18 9 -7 4 -15 8 -18 8 -3 0
-11 -4 -18 -8z"/>
<path d="M5570 565 c0 -8 4 -15 10 -15 5 0 7 7 4 15 -4 8 -8 15 -10 15 -2 0
-4 -7 -4 -15z"/>
<path d="M5630 576 c0 -2 7 -9 15 -16 13 -11 14 -10 9 4 -5 14 -24 23 -24 12z"/>
<path d="M799 553 c-12 -16 -12 -17 2 -6 9 7 19 10 22 6 4 -3 7 -1 7 5 0 17
-16 15 -31 -5z"/>
<path d="M2793 558 c1 -7 -4 -12 -11 -10 -8 1 -11 -2 -7 -8 5 -8 11 -8 21 1 7
6 11 15 8 20 -8 13 -14 11 -11 -3z"/>
<path d="M2875 560 c-3 -5 -1 -10 4 -10 6 0 11 5 11 10 0 6 -2 10 -4 10 -3 0
-8 -4 -11 -10z"/>
<path d="M5730 559 c0 -5 5 -7 10 -4 6 3 10 8 10 11 0 2 -4 4 -10 4 -5 0 -10
-5 -10 -11z"/>
<path d="M915 549 c-4 -6 -5 -12 -2 -15 2 -3 7 2 10 11 7 17 1 20 -8 4z"/>
<path d="M1010 553 c0 -19 14 -22 35 -7 10 8 14 14 8 14 -7 0 -15 -5 -19 -11
-4 -8 -9 -7 -15 2 -6 10 -9 10 -9 2z"/>
<path d="M1186 548 c3 -5 10 -6 15 -3 13 9 11 12 -6 12 -8 0 -12 -4 -9 -9z"/>
<path d="M1224 545 c-18 -14 -18 -15 8 -11 15 3 29 -1 32 -7 3 -8 5 -9 5 -1 2
24 -25 34 -45 19z"/>
<path d="M1325 550 c-3 -6 1 -7 9 -4 18 7 21 14 7 14 -6 0 -13 -4 -16 -10z"/>
<path d="M1430 546 c7 -7 13 -7 20 0 6 6 3 10 -10 10 -13 0 -16 -4 -10 -10z"/>
<path d="M1483 553 c-15 -5 -17 -23 -4 -23 5 0 11 7 15 15 3 8 4 15 3 14 -1 0
-8 -3 -14 -6z"/>
<path d="M1515 550 c-3 -6 1 -7 9 -4 18 7 21 14 7 14 -6 0 -13 -4 -16 -10z"/>
<path d="M1581 556 c2 -2 15 -9 29 -15 24 -11 24 -11 6 3 -16 13 -49 24 -35
12z"/>
<path d="M1630 556 c0 -2 9 -6 20 -9 11 -3 18 -1 14 4 -5 9 -34 13 -34 5z"/>
<path d="M2910 553 c8 -3 19 -11 23 -17 6 -7 7 -6 4 4 -2 8 -12 16 -23 17 -13
2 -15 1 -4 -4z"/>
<path d="M5670 557 c0 -2 6 -10 14 -16 11 -9 16 -9 22 1 4 7 4 10 -1 6 -4 -4
-14 -3 -22 3 -7 6 -13 9 -13 6z"/>
<path d="M840 540 c-9 -6 -10 -10 -3 -10 6 0 15 5 18 10 8 12 4 12 -15 0z"/>
<path d="M1550 540 c0 -5 5 -10 10 -10 6 0 10 5 10 10 0 6 -4 10 -10 10 -5 0
-10 -4 -10 -10z"/>
<path d="M2854 542 c3 -5 0 -13 -6 -15 -9 -4 -10 -6 -1 -6 17 -1 25 16 12 25
-7 4 -9 3 -5 -4z"/>
<path d="M5496 534 c-5 -14 -4 -15 9 -4 17 14 19 20 6 20 -5 0 -12 -7 -15 -16z"/>
<path d="M5596 542 c-3 -5 1 -9 9 -9 8 0 12 4 9 9 -3 4 -7 8 -9 8 -2 0 -6 -4
-9 -8z"/>
<path d="M1060 531 c0 -7 -5 -9 -11 -5 -8 4 -8 0 0 -15 14 -25 23 -28 14 -3
-6 15 -5 16 13 2 18 -14 18 -14 4 5 -8 11 -16 22 -17 24 -2 2 -3 -1 -3 -8z"/>
<path d="M1696 527 c3 -10 9 -15 12 -12 3 3 0 11 -7 18 -10 9 -11 8 -5 -6z"/>
<path d="M2897 529 c7 -7 15 -10 18 -7 3 3 -2 9 -12 12 -14 6 -15 5 -6 -5z"/>
<path d="M2950 531 c0 -6 7 -7 17 -4 11 4 14 3 9 -5 -4 -7 -2 -12 4 -12 7 0
10 6 8 13 -6 15 -38 22 -38 8z"/>
<path d="M865 520 c-3 -6 1 -7 9 -4 18 7 21 14 7 14 -6 0 -13 -4 -16 -10z"/>
<path d="M994 515 c3 -23 12 -26 13 -5 1 11 -2 20 -7 20 -4 0 -7 -7 -6 -15z"/>
<path d="M1156 515 c-11 -8 -15 -15 -9 -15 7 0 15 5 18 10 4 6 11 8 16 5 5 -4
9 -1 9 4 0 15 -11 13 -34 -4z"/>
<path d="M1315 521 c-3 -5 -2 -12 3 -15 5 -3 9 1 9 9 0 17 -3 19 -12 6z"/>
<path d="M1410 521 c0 -4 13 -7 30 -7 16 0 28 2 25 4 -8 9 -55 11 -55 3z"/>
<path d="M1577 523 c-3 -5 5 -8 18 -8 13 0 21 3 18 8 -2 4 -10 7 -18 7 -8 0
-16 -3 -18 -7z"/>
<path d="M3000 526 c0 -3 9 -10 20 -16 11 -6 20 -8 20 -6 0 3 -9 10 -20 16
-11 6 -20 8 -20 6z"/>
<path d="M5460 522 c0 -4 9 -13 20 -20 19 -12 20 -11 8 8 -13 20 -28 27 -28
12z"/>
<path d="M5516 522 c-3 -4 4 -9 15 -9 23 -2 25 3 4 10 -8 4 -16 3 -19 -1z"/>
<path d="M3055 499 c7 -11 35 -12 35 -1 0 4 -9 8 -20 9 -11 1 -18 -2 -15 -8z"/>
<path d="M5436 495 c-9 -26 -7 -32 5 -12 6 10 9 21 6 23 -2 3 -7 -2 -11 -11z"/>
<path d="M2990 489 c0 -5 5 -7 10 -4 6 3 10 8 10 11 0 2 -4 4 -10 4 -5 0 -10
-5 -10 -11z"/>
<path d="M5334 488 c-3 -4 -4 -8 -2 -9 25 -6 37 -6 33 1 -3 5 1 10 7 13 7 3 3
4 -10 4 -13 -1 -26 -5 -28 -9z"/>
<path d="M1166 478 c3 -5 10 -6 15 -3 13 9 11 12 -6 12 -8 0 -12 -4 -9 -9z"/>
<path d="M1410 479 c0 -5 5 -7 10 -4 6 3 10 8 10 11 0 2 -4 4 -10 4 -5 0 -10
-5 -10 -11z"/>
<path d="M1650 481 c0 -6 4 -13 10 -16 6 -3 7 1 4 9 -7 18 -14 21 -14 7z"/>
<path d="M2800 480 c-9 -6 -10 -10 -3 -10 6 0 15 5 18 10 8 12 4 12 -15 0z"/>
<path d="M3140 480 c0 -5 5 -10 11 -10 5 0 7 5 4 10 -3 6 -8 10 -11 10 -2 0
-4 -4 -4 -10z"/>
<path d="M5456 482 c-3 -4 4 -9 15 -9 23 -2 25 3 4 10 -8 4 -16 3 -19 -1z"/>
<path d="M5535 480 c3 -5 8 -10 11 -10 2 0 4 5 4 10 0 6 -5 10 -11 10 -5 0 -7
-4 -4 -10z"/>
<path d="M3068 463 c7 -3 16 -2 19 1 4 3 -2 6 -13 5 -11 0 -14 -3 -6 -6z"/>
<path d="M5250 460 c0 -5 5 -10 11 -10 5 0 7 5 4 10 -3 6 -8 10 -11 10 -2 0
-4 -4 -4 -10z"/>
<path d="M5294 462 c3 -5 0 -13 -6 -15 -9 -4 -10 -6 -1 -6 17 -1 25 16 12 25
-7 4 -9 3 -5 -4z"/>
<path d="M5397 448 c19 -21 31 -25 14 -5 -6 8 -9 16 -6 19 3 2 -2 5 -10 5 -13
0 -13 -3 2 -19z"/>
<path d="M3100 449 c0 -5 -6 -7 -12 -3 -8 5 -8 1 2 -12 8 -10 15 -20 16 -22 1
-2 2 9 2 23 0 14 -2 25 -4 25 -2 0 -4 -5 -4 -11z"/>
<path d="M3157 440 c-3 -11 -2 -22 2 -24 4 -3 8 6 9 20 2 29 -4 31 -11 4z"/>
<path d="M3210 446 c0 -2 7 -7 16 -10 8 -3 12 -2 9 4 -6 10 -25 14 -25 6z"/>
<path d="M3250 440 c0 -5 5 -10 10 -10 6 0 10 5 10 10 0 6 -4 10 -10 10 -5 0
-10 -4 -10 -10z"/>
<path d="M3280 446 c0 -3 9 -10 19 -16 15 -7 22 -7 27 2 4 7 4 10 -1 6 -4 -4
-16 -3 -26 3 -11 5 -19 7 -19 5z"/>
<path d="M5224 431 c0 -11 4 -17 8 -15 4 3 8 12 8 20 0 8 -4 14 -8 14 -4 0 -8
-9 -8 -19z"/>
<path d="M5115 430 c-3 -6 1 -7 9 -4 18 7 21 14 7 14 -6 0 -13 -4 -16 -10z"/>
<path d="M5335 431 c-3 -5 -2 -12 3 -15 5 -3 9 1 9 9 0 17 -3 19 -12 6z"/>
<path d="M3190 418 c0 -4 4 -8 9 -8 6 0 12 4 15 8 3 5 -1 9 -9 9 -8 0 -15 -4
-15 -9z"/>
<path d="M3335 420 c-3 -5 -1 -10 4 -10 6 0 11 5 11 10 0 6 -2 10 -4 10 -3 0
-8 -4 -11 -10z"/>
<path d="M5175 421 c-9 -15 15 -25 28 -12 9 9 7 10 -7 5 -13 -5 -17 -4 -12 4
4 7 5 12 2 12 -3 0 -7 -4 -11 -9z"/>
<path d="M3399 403 c-8 -9 -9 -14 -2 -10 6 4 13 2 15 -5 3 -8 7 -6 11 5 9 23
-8 30 -24 10z"/>
<path d="M4950 405 c0 -5 5 -17 10 -25 5 -8 10 -10 10 -5 0 6 -5 17 -10 25 -5
8 -10 11 -10 5z"/>
<path d="M3330 391 c0 -6 4 -13 10 -16 6 -3 7 1 4 9 -7 18 -14 21 -14 7z"/>
<path d="M4926 385 c13 -10 15 -14 5 -15 -8 0 -12 -3 -8 -6 3 -3 11 -3 17 1
13 8 -5 35 -23 35 -6 0 -2 -7 9 -15z"/>
<path d="M3195 380 c3 -5 8 -10 11 -10 2 0 4 5 4 10 0 6 -5 10 -11 10 -5 0 -7
-4 -4 -10z"/>
<path d="M4890 380 c0 -5 5 -10 11 -10 5 0 7 5 4 10 -3 6 -8 10 -11 10 -2 0
-4 -4 -4 -10z"/>
<path d="M5215 381 c-3 -5 -2 -12 3 -15 5 -3 9 1 9 9 0 17 -3 19 -12 6z"/>
<path d="M3476 367 c3 -10 9 -15 12 -12 3 3 0 11 -7 18 -10 9 -11 8 -5 -6z"/>
<path d="M3554 356 c1 -8 5 -18 8 -22 4 -3 5 1 4 10 -1 8 -5 18 -8 22 -4 3 -5
-1 -4 -10z"/>
<path d="M4711 348 c12 -23 20 -23 12 -1 -4 11 -3 14 5 9 7 -4 19 -3 28 2 12
6 6 9 -19 8 -30 -1 -34 -3 -26 -18z"/>
<path d="M3745 347 c-14 -11 -15 -16 -5 -22 9 -5 11 -4 6 3 -4 7 -1 12 8 12 9
0 16 5 16 10 0 13 -3 13 -25 -3z"/>
<path d="M3808 350 c16 -19 15 -31 -3 -24 -8 4 -15 1 -15 -7 0 -7 3 -9 7 -6 3
4 11 3 17 -3 8 -6 12 -3 13 10 1 10 -6 24 -15 31 -14 11 -15 11 -4 -1z"/>
<path d="M3390 346 c0 -2 7 -7 16 -10 8 -3 12 -2 9 4 -6 10 -25 14 -25 6z"/>
<path d="M3585 340 c-3 -6 1 -7 9 -4 18 7 21 14 7 14 -6 0 -13 -4 -16 -10z"/>
<path d="M3949 331 c6 -10 7 -22 3 -26 -4 -5 -1 -5 6 -1 9 5 9 12 2 27 -6 10
-13 19 -16 19 -2 0 0 -8 5 -19z"/>
<path d="M4484 339 c-3 -6 0 -17 8 -25 13 -13 15 -13 15 0 0 8 -5 12 -10 9 -6
-4 -8 0 -4 10 7 19 2 23 -9 6z"/>
<path d="M4759 348 c-6 -21 -5 -37 2 -32 5 3 7 9 4 14 -3 4 1 11 7 13 10 4 10
6 1 6 -7 1 -13 0 -14 -1z"/>
<path d="M4820 345 c0 -2 6 -8 13 -14 10 -8 14 -7 14 2 0 8 -6 14 -14 14 -7 0
-13 -1 -13 -2z"/>
<path d="M4867 339 c7 -9 10 -19 6 -22 -3 -4 -1 -7 5 -7 17 0 15 16 -5 31 -16
12 -17 12 -6 -2z"/>
<path d="M3619 338 c-5 -9 -5 -48 -1 -43 6 6 11 45 5 45 -2 0 -4 -1 -4 -2z"/>
<path d="M4051 324 c0 -11 3 -14 6 -6 3 7 2 16 -1 19 -3 4 -6 -2 -5 -13z"/>
<path d="M4075 322 c1 -9 -3 -21 -9 -25 -7 -6 -7 -7 2 -5 8 2 13 7 12 12 -1 5
4 12 10 16 8 5 7 9 -3 13 -10 4 -14 0 -12 -11z"/>
<path d="M4115 331 c-3 -5 -2 -12 3 -15 5 -3 9 1 9 9 0 17 -3 19 -12 6z"/>
<path d="M3690 319 c0 -5 5 -7 10 -4 6 3 10 8 10 11 0 2 -4 4 -10 4 -5 0 -10
-5 -10 -11z"/>
<path d="M4275 320 c27 -12 43 -12 25 0 -8 5 -22 9 -30 9 -10 0 -8 -3 5 -9z"/>
<path d="M4450 320 c0 -5 5 -10 10 -10 6 0 10 5 10 10 0 6 -4 10 -10 10 -5 0
-10 -4 -10 -10z"/>
<path d="M4656 322 c-2 -4 6 -7 20 -7 32 2 39 10 9 13 -13 1 -26 -2 -29 -6z"/>
<path d="M3856 312 c-2 -4 4 -8 14 -8 10 0 16 4 14 8 -3 4 -9 8 -14 8 -5 0
-11 -4 -14 -8z"/>
<path d="M4415 310 c-3 -6 1 -7 9 -4 18 7 21 14 7 14 -6 0 -13 -4 -16 -10z"/>
<path d="M3907 299 c7 -7 15 -10 18 -7 3 3 -2 9 -12 12 -14 6 -15 5 -6 -5z"/>
<path d="M4161 301 c-9 -6 -10 -11 -2 -15 6 -4 11 -2 11 4 0 6 5 8 12 4 7 -4
8 -3 4 4 -8 14 -7 14 -25 3z"/>
<path d="M4259 308 c-6 -19 -3 -50 5 -55 6 -3 8 -2 3 2 -4 5 1 17 10 27 16 18
16 18 -2 12 -13 -5 -16 -4 -11 4 4 7 5 12 2 12 -3 0 -6 -1 -7 -2z"/>
<path d="M4390 305 c0 -5 5 -17 10 -25 5 -8 10 -10 10 -5 0 6 -5 17 -10 25 -5
8 -10 11 -10 5z"/>
<path d="M4775 300 c-3 -5 -1 -10 4 -10 6 0 11 5 11 10 0 6 -2 10 -4 10 -3 0
-8 -4 -11 -10z"/>
<path d="M3982 285 c15 -16 20 -17 30 -6 11 11 10 13 0 7 -7 -4 -21 -2 -30 5
-15 12 -15 11 0 -6z"/>
<path d="M4037 293 c-10 -9 -9 -23 1 -23 5 0 9 7 9 15 0 17 -1 18 -10 8z"/>
<path d="M4117 293 c-10 -10 -8 -23 4 -23 5 0 8 4 5 9 -4 5 0 12 6 14 7 3 8 6
2 6 -6 1 -14 -2 -17 -6z"/>
<path d="M3775 280 c3 -5 8 -10 11 -10 2 0 4 5 4 10 0 6 -5 10 -11 10 -5 0 -7
-4 -4 -10z"/>
<path d="M4080 280 c-9 -6 -10 -10 -3 -10 6 0 15 5 18 10 8 12 4 12 -15 0z"/>
<path d="M4324 282 c4 -3 14 -7 22 -8 9 -1 13 0 10 4 -4 3 -14 7 -22 8 -9 1
-13 0 -10 -4z"/>
<path d="M4515 260 c3 -5 8 -10 11 -10 2 0 4 5 4 10 0 6 -5 10 -11 10 -5 0 -7
-4 -4 -10z"/>
<path d="M4355 251 c-3 -5 -2 -12 3 -15 5 -3 9 1 9 9 0 17 -3 19 -12 6z"/>
<path d="M4420 240 c-9 -6 -10 -10 -3 -10 6 0 15 5 18 10 8 12 4 12 -15 0z"/>
</g>
</svg>
